<?xml version="1.0" encoding="UTF-8"?>
<!--Generator: Apple Native CoreSVG 326-->
<!DOCTYPE svg
PUBLIC "-//W3C//DTD SVG 1.1//EN"
       "http://www.w3.org/Graphics/SVG/1.1/DTD/svg11.dtd">
<svg version="1.1" xmlns="http://www.w3.org/2000/svg" xmlns:xlink="http://www.w3.org/1999/xlink" viewBox="0 0 22.954 22.9687">
 <g>
  <rect height="22.9687" opacity="0" width="22.954" x="0" y="0"/>
  <path d="M14.7928 22.9687L20.7069 22.9687C22.1955 22.9687 22.954 22.2385 22.954 20.6794L22.954 14.8392C22.954 13.2857 22.1955 12.5499 20.7069 12.5499L14.7928 12.5499C13.3042 12.5499 12.5457 13.2857 12.5457 14.8392L12.5457 20.6794C12.5457 22.2385 13.3042 22.9687 14.7928 22.9687ZM14.825 21.4289C14.3118 21.4289 14.075 21.1921 14.075 20.6789L14.075 14.8503C14.075 14.3265 14.3118 14.0898 14.825 14.0898L20.6853 14.0898C21.1985 14.0898 21.4247 14.3265 21.4247 14.8503L21.4247 20.6789C21.4247 21.1921 21.1985 21.4289 20.6853 21.4289Z" fill="black"/>
  <path d="M2.2479 22.9687L8.16195 22.9687C9.65062 22.9687 10.409 22.2385 10.409 20.6794L10.409 14.8392C10.409 13.2857 9.65062 12.5499 8.16195 12.5499L2.2479 12.5499C0.759231 12.5499 0.000819795 13.2857 0.000819795 14.8392L0.000819795 20.6794C0.000819795 22.2385 0.759231 22.9687 2.2479 22.9687ZM2.26954 21.4289C1.76684 21.4289 1.53009 21.1921 1.53009 20.6789L1.53009 14.8503C1.53009 14.3265 1.76684 14.0898 2.26954 14.0898L8.12979 14.0898C8.64301 14.0898 8.87977 14.3265 8.87977 14.8503L8.87977 20.6789C8.87977 21.1921 8.64301 21.4289 8.12979 21.4289Z" fill="black"/>
  <path d="M14.7928 10.4132L20.7069 10.4132C22.1955 10.4132 22.954 9.68801 22.954 8.13449L22.954 2.29431C22.954 0.735263 22.1955 0.00501205 20.7069 0.00501205L14.7928 0.00501205C13.3042 0.00501205 12.5457 0.735263 12.5457 2.29431L12.5457 8.13449C12.5457 9.68801 13.3042 10.4132 14.7928 10.4132ZM14.825 8.88397C14.3118 8.88397 14.075 8.64722 14.075 8.12342L14.075 2.29483C14.075 1.78158 14.3118 1.54485 14.825 1.54485L20.6853 1.54485C21.1985 1.54485 21.4247 1.78158 21.4247 2.29483L21.4247 8.12342C21.4247 8.64722 21.1985 8.88397 20.6853 8.88397Z" fill="black"/>
  <path d="M2.2479 10.4132L8.16195 10.4132C9.65062 10.4132 10.409 9.68801 10.409 8.13449L10.409 2.29431C10.409 0.735263 9.65062 0.00501205 8.16195 0.00501205L2.2479 0.00501205C0.759231 0.00501205 0.000819795 0.735263 0.000819795 2.29431L0.000819795 8.13449C0.000819795 9.68801 0.759231 10.4132 2.2479 10.4132ZM2.26954 8.88397C1.76684 8.88397 1.53009 8.64722 1.53009 8.12342L1.53009 2.29483C1.53009 1.78158 1.76684 1.54485 2.26954 1.54485L8.12979 1.54485C8.64301 1.54485 8.87977 1.78158 8.87977 2.29483L8.87977 8.12342C8.87977 8.64722 8.64301 8.88397 8.12979 8.88397Z" fill="black"/>
 </g>
</svg>
