<?xml version="1.0" encoding="UTF-8"?>
<!--Generator: Apple Native CoreSVG 326-->
<!DOCTYPE svg
PUBLIC "-//W3C//DTD SVG 1.1//EN"
       "http://www.w3.org/Graphics/SVG/1.1/DTD/svg11.dtd">
<svg version="1.1" xmlns="http://www.w3.org/2000/svg" xmlns:xlink="http://www.w3.org/1999/xlink" viewBox="0 0 25.682 24.5861">
 <g>
  <rect height="24.5861" opacity="0" width="25.682" x="0" y="0"/>
  <path d="M1.27807 24.0815C1.57659 24.0815 1.86458 23.9744 2.23196 23.7774L8.67865 20.257L15.5912 24.2112C16.0405 24.463 16.4944 24.5861 16.9321 24.5861C17.3488 24.5861 17.771 24.4735 18.152 24.2534L24.6951 20.5053C25.3665 20.1213 25.6806 19.5957 25.6806 18.8056L25.6806 1.8536C25.6806 0.995176 25.2062 0.515196 24.392 0.515196C24.104 0.515196 23.8 0.616724 23.4381 0.813724L16.7804 4.50599L9.99702 0.359364C9.60497 0.123147 9.16567 0.00502773 8.73192 0.00502773C8.28208 0.00502773 7.83777 0.123147 7.44069 0.359364L0.985551 4.0964C0.303569 4.48039 0 5.00605 0 5.78556L0 22.7376C0 23.596 0.474444 24.0815 1.27807 24.0815ZM7.9781 18.571L2.10626 21.817C2.04193 21.8492 1.97758 21.8758 1.92381 21.8758C1.80016 21.8758 1.72977 21.7949 1.72977 21.6602L1.72977 6.20922C1.72977 5.9036 1.84185 5.68395 2.13689 5.50703L7.54987 2.32276C7.69965 2.23732 7.83886 2.16243 7.9781 2.08807ZM9.71841 18.7348L9.71841 2.2991C9.84709 2.35741 9.99184 2.43229 10.115 2.50717L15.9622 6.07594L15.9622 22.3011C15.7913 22.2161 15.6149 22.1307 15.4496 22.0347ZM17.692 22.486L17.692 5.98096L23.5744 2.77414C23.6387 2.74196 23.7031 2.71533 23.7568 2.71533C23.8699 2.71533 23.9403 2.79627 23.9403 2.93097L23.9403 18.3925C23.9403 18.6981 23.8388 18.9177 23.5437 19.0947L18.2202 22.1985C18.0493 22.3051 17.8679 22.4011 17.692 22.486Z" fill="black" fill-opacity="0.85"/>
 </g>
</svg>
