<?xml version="1.0" encoding="UTF-8"?>
<!--Generator: Apple Native CoreSVG 326-->
<!DOCTYPE svg
PUBLIC "-//W3C//DTD SVG 1.1//EN"
       "http://www.w3.org/Graphics/SVG/1.1/DTD/svg11.dtd">
<svg version="1.1" xmlns="http://www.w3.org/2000/svg" xmlns:xlink="http://www.w3.org/1999/xlink" viewBox="0 0 27.0933 26.6803">
 <g>
  <rect height="26.6803" opacity="0" width="27.0933" x="0" y="0"/>
  <path d="M8.54445 26.6431C9.80454 26.6431 10.7012 26.3148 11.4486 25.9977C12.2051 25.681 12.8018 25.3598 13.5326 25.3598C14.2584 25.3598 14.8551 25.681 15.6115 25.9977C16.3589 26.3148 17.2501 26.6431 18.5102 26.6431C21.1831 26.6431 23.2071 24.705 23.2071 22.1718C23.2071 19.6481 21.7364 18.4192 20.4487 17.3833C19.7727 16.857 19.172 16.3795 18.8232 15.8C18.5076 15.2702 18.2502 14.6701 17.9823 14.0589C17.1565 12.1555 16.2593 10.1133 13.5326 10.1133C10.7953 10.1133 9.8926 12.161 9.07783 14.0534C8.80995 14.6591 8.56919 15.2481 8.25909 15.7563C7.90472 16.3574 7.29303 16.8515 6.61649 17.3833C5.31818 18.4247 3.85303 19.6537 3.85303 22.1718C3.85303 24.705 5.87706 26.6431 8.54445 26.6431ZM8.54445 25.0716C6.73189 25.0716 5.4245 23.8502 5.4245 22.1718C5.4245 19.1374 8.03631 19.1668 9.53356 16.6211C10.6811 14.6855 11.1068 11.6847 13.5326 11.6847C15.9533 11.6847 16.3791 14.6855 17.5487 16.6649C19.0294 19.1668 21.6357 19.1374 21.6357 22.1718C21.6357 23.8502 20.3283 25.0716 18.5102 25.0716C16.666 25.0716 15.5014 23.7989 13.5326 23.7989C11.5588 23.7989 10.3942 25.0716 8.54445 25.0716ZM0 11.9795C0 14.8138 1.30629 16.6941 3.30319 16.6941C5.29505 16.6941 6.61742 14.8138 6.61742 11.9795C6.61742 9.15579 5.29505 7.26996 3.30319 7.26996C1.30629 7.26996 0 9.15579 0 11.9795ZM1.50818 11.9795C1.50818 10.0478 2.22496 8.77813 3.30319 8.77813C4.37638 8.77813 5.10927 10.0533 5.10927 11.9795C5.10927 13.9162 4.37638 15.1859 3.30319 15.1859C2.22496 15.1859 1.50818 13.9217 1.50818 11.9795ZM6.12799 4.69347C6.12799 7.54383 7.43428 9.40802 9.43118 9.40802C11.423 9.40802 12.7454 7.52772 12.7454 4.69347C12.7454 1.86974 11.4286 0 9.43118 0C7.43428 0 6.12799 1.8642 6.12799 4.69347ZM7.63617 4.69347C7.63617 2.77785 8.35295 1.50817 9.43118 1.50817C10.5044 1.50817 11.2373 2.78338 11.2373 4.69347C11.2373 6.63017 10.5044 7.89987 9.43118 7.89987C8.35295 7.89987 7.63617 6.6357 7.63617 4.69347ZM14.3469 4.69347C14.3469 7.52772 15.6693 9.40802 17.6662 9.40802C19.658 9.40802 20.9643 7.54383 20.9643 4.69347C20.9643 1.8642 19.658 0 17.6662 0C15.6638 0 14.3469 1.86974 14.3469 4.69347ZM15.8551 4.69347C15.8551 2.78338 16.588 1.50817 17.6662 1.50817C18.7394 1.50817 19.4562 2.77785 19.4562 4.69347C19.4562 6.6357 18.7394 7.89987 17.6662 7.89987C16.588 7.89987 15.8551 6.63017 15.8551 4.69347ZM20.4749 11.9795C20.4749 14.8138 21.7973 16.6941 23.7942 16.6941C25.786 16.6941 27.0923 14.8138 27.0923 11.9795C27.0923 9.15579 25.786 7.26996 23.7942 7.26996C21.7973 7.26996 20.4749 9.15579 20.4749 11.9795ZM21.9831 11.9795C21.9831 10.0533 22.716 8.77813 23.7942 8.77813C24.8674 8.77813 25.5842 10.0478 25.5842 11.9795C25.5842 13.9217 24.8674 15.1859 23.7942 15.1859C22.716 15.1859 21.9831 13.9162 21.9831 11.9795Z" fill="black" fill-opacity="0.85"/>
 </g>
</svg>
