<?xml version="1.0" encoding="UTF-8"?>
<!--Generator: Apple Native CoreSVG 326-->
<!DOCTYPE svg
PUBLIC "-//W3C//DTD SVG 1.1//EN"
       "http://www.w3.org/Graphics/SVG/1.1/DTD/svg11.dtd">
<svg version="1.1" xmlns="http://www.w3.org/2000/svg" xmlns:xlink="http://www.w3.org/1999/xlink" viewBox="0 0 24.7306 23.4611">
 <g>
  <rect height="23.4611" opacity="0" width="24.7306" x="0" y="0"/>
  <path d="M0 8.15185C0 13.455 4.54981 18.6511 11.5447 23.1525C11.7789 23.3068 12.1302 23.4611 12.3649 23.4611C12.6102 23.4611 12.9454 23.3068 13.1851 23.1525C20.1745 18.6511 24.7299 13.455 24.7299 8.15185C24.7299 3.79871 21.7257 0.692551 17.7199 0.692551C15.4114 0.692551 13.4672 1.84209 12.3649 3.61539C11.2733 1.85263 9.31851 0.692551 7.00998 0.692551C3.00414 0.692551 0 3.79871 0 8.15185ZM1.72977 8.15185C1.72977 4.73747 3.96954 2.42231 6.99944 2.42231C9.34669 2.42231 10.7551 3.88496 11.6096 5.25924C11.9016 5.706 12.0986 5.84472 12.3649 5.84472C12.6419 5.84472 12.8017 5.69545 13.1203 5.25924C14.0115 3.90605 15.3937 2.42231 17.741 2.42231C20.7654 2.42231 23.0001 4.73747 23.0001 8.15185C23.0001 12.8605 18.0578 17.8872 12.6047 21.5193C12.4931 21.5937 12.4132 21.6469 12.3649 21.6469C12.3167 21.6469 12.2368 21.5937 12.1358 21.5193C6.67208 17.8872 1.72977 12.8605 1.72977 8.15185Z" fill="black" fill-opacity="0.85"/>
 </g>
</svg>
