<?xml version="1.0" encoding="UTF-8"?>
<!--Generator: Apple Native CoreSVG 326-->
<!DOCTYPE svg
PUBLIC "-//W3C//DTD SVG 1.1//EN"
       "http://www.w3.org/Graphics/SVG/1.1/DTD/svg11.dtd">
<svg version="1.1" xmlns="http://www.w3.org/2000/svg" xmlns:xlink="http://www.w3.org/1999/xlink" viewBox="0 0 29.4653 26.2146">
 <g>
  <rect height="26.2146" opacity="0" width="29.4653" x="0" y="0"/>
  <path d="M11.1188 25.0959L18.347 25.0959L18.347 16.9172C18.347 16.3724 17.9997 16.0201 17.4499 16.0201L12.016 16.0201C11.4767 16.0201 11.1188 16.3724 11.1188 16.9172ZM0.928729 13.012C1.22574 13.012 1.46394 12.8532 1.68155 12.6728L14.2511 2.11876C14.4019 1.98404 14.5738 1.92472 14.7357 1.92472C14.892 1.92472 15.0534 1.98404 15.2042 2.11876L27.7843 12.6728C28.0019 12.8532 28.2401 13.012 28.5371 13.012C29.1205 13.012 29.4653 12.5985 29.4653 12.1582C29.4653 11.9029 29.3538 11.6486 29.109 11.4411L16.145 0.560903C15.6911 0.18695 15.2106 0 14.7357 0C14.2552 0 13.7642 0.18695 13.3209 0.560903L0.356846 11.4411C0.112108 11.6486 0.000534143 11.9029 0.000534143 12.1582C0.000534143 12.5985 0.350801 13.012 0.928729 13.012ZM23.0593 6.90317L25.9305 9.3271L25.9305 3.76467C25.9305 3.27515 25.6058 2.96105 25.1163 2.96105L23.8734 2.96105C23.3945 2.96105 23.0593 3.27515 23.0593 3.76467ZM6.2288 26.1985L23.2265 26.1985C24.9535 26.1985 25.9305 25.2315 25.9305 23.5473L25.9305 9.60955L24.1957 8.41949L24.1957 23.1126C24.1957 24.0124 23.7443 24.4688 22.8712 24.4688L6.59465 24.4688C5.72152 24.4688 5.26514 24.0124 5.26514 23.1126L5.26514 8.43608L3.53536 9.60955L3.53536 23.5473C3.53536 25.2371 4.51241 26.1985 6.2288 26.1985Z" fill="black" fill-opacity="0.85"/>
 </g>
</svg>
