<?xml version="1.0" encoding="UTF-8"?>
<!--Generator: Apple Native CoreSVG 326-->
<!DOCTYPE svg
PUBLIC "-//W3C//DTD SVG 1.1//EN"
       "http://www.w3.org/Graphics/SVG/1.1/DTD/svg11.dtd">
<svg version="1.1" xmlns="http://www.w3.org/2000/svg" xmlns:xlink="http://www.w3.org/1999/xlink" viewBox="0 0 29.4266 30.0615">
 <g>
  <rect height="30.0615" opacity="0" width="29.4266" x="0" y="0"/>
  <path d="M14.7242 5.40917C16.2079 5.40917 17.4343 4.20941 17.4343 2.6885C17.4343 1.21031 16.2079 0 14.7242 0C13.2248 0 12.0251 1.21031 12.0251 2.6885C12.0251 4.20941 13.2248 5.40917 14.7242 5.40917ZM12.009 14.7715L17.4609 14.7715L17.4609 11.7069C17.4609 11.4928 17.7876 11.3963 17.9107 11.6587L21.3708 18.6853C21.6814 19.296 22.4202 19.5583 23.0415 19.2316C23.6305 18.9371 23.8984 18.1872 23.5878 17.5715L19.0356 8.37059C18.4892 7.26734 17.477 6.64058 16.2023 6.64058L13.2409 6.64058C11.9768 6.64058 10.954 7.26734 10.4077 8.37059L5.86604 17.5715C5.55541 18.1872 5.82332 18.9371 6.40182 19.2316C7.02307 19.5583 7.7619 19.296 8.07252 18.6853L11.5536 11.6587C11.6823 11.3963 12.009 11.4768 12.009 11.6909ZM9.69548 29.9429C10.2951 30.066 10.9807 29.7554 11.1681 28.904L12.3197 23.5858L14.7242 19.1039L17.1181 23.5858L18.2751 28.904C18.4626 29.7931 19.2125 30.0877 19.8232 29.9268C20.4067 29.766 20.8671 29.2091 20.6957 28.3576L19.5176 22.8736C19.5015 22.7665 19.4799 22.6861 19.4372 22.5791L17.9353 18.3364L11.524 18.3364L10.0006 22.5791C9.95784 22.6861 9.94175 22.7665 9.92567 22.8736L8.75809 28.3576C8.57062 29.2468 9.09534 29.8198 9.69548 29.9429ZM2.41903 20.7098L3.25047 20.7098C3.70882 20.7098 4.0184 20.3736 4.0184 19.9208L4.0184 13.1605C4.0184 12.7021 3.70882 12.3925 3.25047 12.3925L2.41903 12.3925C1.96069 12.3925 1.64053 12.7021 1.64053 13.1605L1.64053 19.9208C1.64053 20.3736 1.96069 20.7098 2.41903 20.7098ZM26.1817 20.7098L27.0187 20.7098C27.4771 20.7098 27.7867 20.3736 27.7867 19.9208L27.7867 13.1605C27.7867 12.7021 27.4771 12.3925 27.0187 12.3925L26.1817 12.3925C25.7289 12.3925 25.4088 12.7021 25.4088 13.1605L25.4088 19.9208C25.4088 20.3736 25.7289 20.7098 26.1817 20.7098ZM0.612189 17.1708L28.8151 17.1708C29.1553 17.1708 29.4266 16.8889 29.4266 16.5487C29.4266 16.2029 29.1553 15.9315 28.8151 15.9315L0.612189 15.9315C0.271945 15.9315 0.000558505 16.2029 0.000558505 16.5487C0.000558505 16.8889 0.271945 17.1708 0.612189 17.1708Z" fill="black" fill-opacity="0.85"/>
 </g>
</svg>
