<?xml version="1.0" encoding="UTF-8"?>
<!--Generator: Apple Native CoreSVG 326-->
<!DOCTYPE svg
PUBLIC "-//W3C//DTD SVG 1.1//EN"
       "http://www.w3.org/Graphics/SVG/1.1/DTD/svg11.dtd">
<svg version="1.1" xmlns="http://www.w3.org/2000/svg" xmlns:xlink="http://www.w3.org/1999/xlink" viewBox="0 0 29.4963 26.3605">
 <g>
  <rect height="26.3605" opacity="0" width="29.4963" x="0" y="0"/>
  <path d="M10.1197 20.2777L24.9518 20.2777C25.3709 20.2777 25.7318 19.9275 25.7318 19.4711C25.7318 18.9987 25.3709 18.654 24.9518 18.654L10.3233 18.654C9.56982 18.654 9.08577 18.1499 8.96713 17.3316L6.85103 3.0261C6.72892 2.18785 6.4314 1.77376 5.32175 1.77376L0.790517 1.77376C0.36032 1.77376-4.44089e-16 2.13458-4.44089e-16 2.58035C-4.44089e-16 3.01002 0.36032 3.38693 0.790517 3.38693L5.20167 3.38693L7.28009 17.5718C7.52536 19.2319 8.41141 20.2777 10.1197 20.2777ZM7.84993 15.8074L24.904 15.8074C26.6576 15.8074 27.5104 14.756 27.7723 13.0461L28.8032 6.25156C28.8298 6.11287 28.8514 5.90377 28.8514 5.80777C28.8514 5.24234 28.4524 4.86393 27.796 4.86393L6.65358 4.86393L6.68124 6.48766L27.0322 6.48766L26.0847 12.8557C25.9555 13.6846 25.5369 14.1942 24.7733 14.1942L7.80617 14.1942ZM11.3006 26.3605C12.4139 26.3605 13.2919 25.4824 13.2919 24.3691C13.2919 23.2609 12.4139 22.3722 11.3006 22.3722C10.1923 22.3722 9.30369 23.2609 9.30369 24.3691C9.30369 25.4824 10.1923 26.3605 11.3006 26.3605ZM22.9583 26.3605C24.0666 26.3605 24.9552 25.4824 24.9552 24.3691C24.9552 23.2609 24.0666 22.3722 22.9583 22.3722C21.845 22.3722 20.9509 23.2609 20.9509 24.3691C20.9509 25.4824 21.845 26.3605 22.9583 26.3605Z" fill="black" fill-opacity="0.85"/>
 </g>
</svg>
