<?xml version="1.0" encoding="UTF-8"?>
<!--Generator: Apple Native CoreSVG 326-->
<!DOCTYPE svg
PUBLIC "-//W3C//DTD SVG 1.1//EN"
       "http://www.w3.org/Graphics/SVG/1.1/DTD/svg11.dtd">
<svg version="1.1" xmlns="http://www.w3.org/2000/svg" xmlns:xlink="http://www.w3.org/1999/xlink" viewBox="0 0 28.4151 26.9069">
 <g>
  <rect height="26.9069" opacity="0" width="28.4151" x="0" y="0"/>
  <path d="M4.1502 14.6691C5.57818 14.6691 6.79502 13.986 7.49916 12.9048C8.20329 13.986 9.42013 14.6691 10.8481 14.6691C12.2922 14.6691 13.509 13.975 14.2132 12.8993C14.9117 13.975 16.1286 14.6691 17.5677 14.6691C19.0062 14.6691 20.223 13.986 20.9272 12.9048C21.6207 13.986 22.8376 14.6691 24.2761 14.6691C26.6087 14.6691 28.404 12.8688 28.4151 10.5578L28.4151 10.3774C28.4151 9.96383 28.3146 9.58743 28.108 9.2271L24.7455 3.35128L24.7455 2.3853C24.7455 0.873979 23.8504 0 22.3285 0L6.08726 0C4.5654 0 3.6703 0.873979 3.6703 2.3853L3.6703 3.35128L0.312751 9.2271C0.111741 9.58189 0.000683059 9.96383 0.000683059 10.3774L0.000683059 10.5578C0.000683059 12.8688 1.80703 14.6691 4.1502 14.6691ZM5.3051 2.93709L5.3051 2.65967C5.3051 2.00976 5.66396 1.63479 6.30886 1.63479L22.1069 1.63479C22.7568 1.63479 23.1212 2.00976 23.1212 2.65967L23.1212 2.93709ZM1.8742 9.73516L4.75134 4.56135L23.5906 4.56135L26.531 9.73516ZM1.63047 11.275L6.65385 11.275C6.42568 12.3512 5.54507 13.1399 4.1502 13.1399C2.73924 13.1399 1.86415 12.3512 1.63047 11.275ZM8.33893 11.275L13.3678 11.275C13.1342 12.3512 12.2485 13.1399 10.8481 13.1399C9.4477 13.1399 8.57263 12.3512 8.33893 11.275ZM15.0479 11.275L20.0819 11.275C19.8537 12.3512 18.9625 13.1399 17.5677 13.1399C16.1672 13.1399 15.2921 12.3512 15.0479 11.275ZM21.7619 11.275L26.7959 11.275C26.5516 12.3512 25.6765 13.1399 24.2761 13.1399C22.8757 13.1399 22.0006 12.3512 21.7619 11.275ZM4.84232 26.8908L23.584 26.8908C25.3004 26.8908 26.2775 25.9293 26.2775 24.229L26.2775 13.6815L24.5477 13.8299L24.5477 23.8104C24.5477 24.6941 24.1018 25.161 23.2182 25.161L5.19761 25.161C4.3245 25.161 3.87311 24.6941 3.87311 23.8104L3.87311 13.7972L2.13832 13.7695L2.13832 24.229C2.13832 25.9348 3.11537 26.8908 4.84232 26.8908ZM6.0612 26.1736L13.2451 26.1736L13.2451 17.9638C13.2451 17.4245 12.8873 17.0667 12.348 17.0667L6.96889 17.0667C6.42961 17.0667 6.0612 17.4245 6.0612 17.9638ZM15.5697 17.2651L15.5697 20.7789C15.5697 21.3238 15.9276 21.6761 16.4774 21.6761L21.6666 21.6761C22.2114 21.6761 22.5693 21.3238 22.5693 20.7789L22.5693 17.2651C22.5693 16.7153 22.2114 16.368 21.6666 16.368L16.4774 16.368C15.9276 16.368 15.5697 16.7153 15.5697 17.2651Z" fill="black" fill-opacity="0.85"/>
 </g>
</svg>
