<?xml version="1.0" encoding="UTF-8"?>
<!--Generator: Apple Native CoreSVG 326-->
<!DOCTYPE svg
PUBLIC "-//W3C//DTD SVG 1.1//EN"
       "http://www.w3.org/Graphics/SVG/1.1/DTD/svg11.dtd">
<svg version="1.1" xmlns="http://www.w3.org/2000/svg" xmlns:xlink="http://www.w3.org/1999/xlink" viewBox="0 0 20.9705 26.9245">
 <g>
  <rect height="26.9245" opacity="0" width="20.9705" x="0" y="0"/>
  <path d="M5.47852 6.2429L15.872 6.2429C16.26 6.2429 16.5525 5.93984 16.5525 5.55189C16.5525 5.17998 16.26 4.88749 15.872 4.88749L5.47852 4.88749C5.07446 4.88749 4.77695 5.17998 4.77695 5.55189C4.77695 5.93984 5.07446 6.2429 5.47852 6.2429ZM5.47852 9.83661L11.7375 9.83661C12.131 9.83661 12.4285 9.53355 12.4285 9.15113C12.4285 8.77369 12.131 8.48674 11.7375 8.48674L5.47852 8.48674C5.07446 8.48674 4.77695 8.77369 4.77695 9.15113C4.77695 9.53355 5.07446 9.83661 5.47852 9.83661ZM5.68258 22.8264L15.2986 22.8264C16.4084 22.8264 16.9763 22.264 16.9763 21.1542L16.9763 13.7527C16.9763 12.6429 16.4084 12.0805 15.2986 12.0805L5.68258 12.0805C4.60446 12.0805 3.99427 12.6429 3.99427 13.7527L3.99427 21.1542C3.99427 22.264 4.60446 22.8264 5.68258 22.8264ZM0.000154132 23.1218C0.000154132 25.6509 1.26322 26.9245 3.76067 26.9245L17.1994 26.9245C19.7024 26.9245 20.9705 25.6509 20.9705 23.1218L20.9705 3.80877C20.9705 1.29021 19.7024 0.00604678 17.1994 0.00604678L3.76067 0.00604678C1.26322 0.00604678 0.000154132 1.29021 0.000154132 3.80877ZM1.72993 23.0896L1.72993 3.84093C1.72993 2.47823 2.45124 1.73581 3.85616 1.73581L17.1144 1.73581C18.5088 1.73581 19.2357 2.47823 19.2357 3.84093L19.2357 23.0896C19.2357 24.4523 18.5088 25.1947 17.1144 25.1947L3.85616 25.1947C2.45124 25.1947 1.72993 24.4523 1.72993 23.0896Z" fill="black" fill-opacity="0.85"/>
 </g>
</svg>
