<?xml version="1.0" encoding="UTF-8"?>
<!--Generator: Apple Native CoreSVG 326-->
<!DOCTYPE svg
PUBLIC "-//W3C//DTD SVG 1.1//EN"
       "http://www.w3.org/Graphics/SVG/1.1/DTD/svg11.dtd">
<svg version="1.1" xmlns="http://www.w3.org/2000/svg" xmlns:xlink="http://www.w3.org/1999/xlink" viewBox="0 0 30.621 24.5429">
 <g>
  <rect height="24.5429" opacity="0" width="30.621" x="0" y="0"/>
  <path d="M24.9777 9.40437C25.8236 9.40437 26.5142 8.71378 26.5142 7.87843C26.5142 7.03808 25.8236 6.34747 24.9777 6.34747C24.1423 6.34747 23.4517 7.03808 23.4517 7.87843C23.4517 8.71378 24.1423 9.40437 24.9777 9.40437ZM3.80351 23.7669L26.8237 23.7669C29.3422 23.7669 30.621 22.4822 30.621 19.9958L30.621 6.78377C30.621 4.29739 29.3422 3.02327 26.8237 3.02327L23.1585 3.02327C22.1497 3.02327 21.8663 2.8539 21.2696 2.19796L20.2387 1.03839C19.5893 0.335197 18.9857 0 17.7166 0L12.7618 0C11.4821 0 10.8785 0.335197 10.2396 1.03839L9.1982 2.19796C8.62316 2.84284 8.31256 3.02327 7.31986 3.02327L3.80351 3.02327C1.28495 3.02327 0.000778277 4.29739 0.000778277 6.78377L0.000778277 19.9958C0.000778277 22.4822 1.28495 23.7669 3.80351 23.7669ZM3.83568 22.0265C2.49509 22.0265 1.73055 21.3158 1.73055 19.9109L1.73055 6.87927C1.73055 5.47434 2.49509 4.75304 3.83568 4.75304L7.71533 4.75304C8.85226 4.75304 9.43529 4.56156 10.0847 3.8423L11.0945 2.70382C11.8127 1.90516 12.1827 1.72976 13.2522 1.72976L17.2156 1.72976C18.2851 1.72976 18.6551 1.90516 19.3733 2.70382L20.3937 3.8423C21.0325 4.56156 21.6261 4.75304 22.763 4.75304L26.7915 4.75304C28.116 4.75304 28.8861 5.47434 28.8861 6.87927L28.8861 19.9109C28.8861 21.3158 28.116 22.0265 26.7915 22.0265ZM15.3136 20.0883C19.1371 20.0883 22.2101 17.0208 22.2101 13.1651C22.2101 9.32001 19.1481 6.25249 15.3136 6.25249C11.4901 6.25249 8.40651 9.32001 8.40651 13.1651C8.40651 17.0208 11.4901 20.0883 15.3136 20.0883ZM15.3136 18.4369C12.4138 18.4369 10.0529 16.086 10.0529 13.1651C10.0529 10.2442 12.4032 7.90389 15.3136 7.90389C18.2184 7.90389 20.5638 10.2442 20.5638 13.1651C20.5638 16.086 18.2184 18.4369 15.3136 18.4369Z" fill="black" fill-opacity="0.85"/>
 </g>
</svg>
