<?xml version="1.0" encoding="UTF-8"?>
<!--Generator: Apple Native CoreSVG 326-->
<!DOCTYPE svg
PUBLIC "-//W3C//DTD SVG 1.1//EN"
       "http://www.w3.org/Graphics/SVG/1.1/DTD/svg11.dtd">
<svg version="1.1" xmlns="http://www.w3.org/2000/svg" xmlns:xlink="http://www.w3.org/1999/xlink" viewBox="0 0 26.3561 31.8856">
 <g>
  <rect height="31.8856" opacity="0" width="26.3561" x="0" y="0"/>
  <path d="M19.2837 3.18207L19.8634 6.47638L18.1078 6.47638L17.5861 3.51125C17.3383 2.17015 16.5039 1.56746 15.1206 1.81528L3.5345 3.85343C2.16177 4.09572 1.58019 4.95123 1.81191 6.29231L4.81613 23.3626C5.02897 24.5534 5.72944 25.1742 6.87553 25.1089L6.87553 26.8584C4.79165 27.0261 3.51854 25.9598 3.113 23.6973L0.103239 6.56267C-0.340555 4.07075 0.692308 2.59411 3.14703 2.1714L14.9191 0.0960625C17.3738-0.337187 18.8399 0.695676 19.2837 3.18207Z" fill="black" fill-opacity="0.85"/>
  <path d="M26.3561 10.2791C26.3561 7.75 25.093 6.47638 22.5956 6.47638L10.6466 6.47638C8.14917 6.47638 6.87553 7.75 6.87553 10.2791L6.87553 27.666C6.87553 30.1846 8.16023 31.4688 10.6466 31.4688L22.5956 31.4688C25.0819 31.4688 26.3561 30.1846 26.3561 27.666ZM24.6263 10.3113L24.6263 27.6339C24.6263 28.9745 23.905 29.739 22.5001 29.739L10.7315 29.739C9.33717 29.739 8.61587 28.9745 8.61587 27.6339L8.61587 10.3113C8.61587 8.94856 9.33717 8.20616 10.7315 8.20616L22.5001 8.20616C23.905 8.20616 24.6263 8.94856 24.6263 10.3113Z" fill="black" fill-opacity="0.85"/>
 </g>
</svg>
