<?xml version="1.0" encoding="UTF-8"?>
<!--Generator: Apple Native CoreSVG 326-->
<!DOCTYPE svg
PUBLIC "-//W3C//DTD SVG 1.1//EN"
       "http://www.w3.org/Graphics/SVG/1.1/DTD/svg11.dtd">
<svg version="1.1" xmlns="http://www.w3.org/2000/svg" xmlns:xlink="http://www.w3.org/1999/xlink" viewBox="0 0 29.9015 27.391">
 <g>
  <rect height="27.391" opacity="0" width="29.9015" x="0" y="0"/>
  <path d="M29.5784 24.512C29.5784 24.898 29.2568 25.2197 28.8708 25.2197C28.4847 25.2197 28.1631 24.898 28.1631 24.512C28.1631 24.126 28.4847 23.8043 28.8708 23.8043C29.2568 23.8043 29.5784 24.126 29.5784 24.512ZM1.73708 24.512C1.73708 24.898 1.41539 25.2197 1.02937 25.2197C0.643377 25.2197 0.321685 24.898 0.321685 24.512C0.321685 24.126 0.643377 23.8043 1.02937 23.8043C1.41539 23.8043 1.73708 24.126 1.73708 24.512ZM5.87452 19.6294C5.46861 20.1295 5.13064 20.654 4.87067 21.1891C4.36823 21.1242 3.97276 20.6877 3.97276 20.1693C3.97276 19.6064 4.43919 19.1399 5.00213 19.1399C5.36772 19.1399 5.69261 19.3367 5.87452 19.6294ZM25.9274 20.1693C25.9274 20.6789 25.5452 21.1094 25.0548 21.1852C24.7917 20.6448 24.4493 20.1153 24.0367 19.6112C24.2209 19.3286 24.54 19.1399 24.898 19.1399C25.4609 19.1399 25.9274 19.6064 25.9274 20.1693ZM29.5784 20.1693C29.5784 20.5553 29.2568 20.877 28.8708 20.877C28.4847 20.877 28.1631 20.5553 28.1631 20.1693C28.1631 19.7833 28.4847 19.4616 28.8708 19.4616C29.2568 19.4616 29.5784 19.7833 29.5784 20.1693ZM1.73708 20.1693C1.73708 20.5553 1.41539 20.877 1.02937 20.877C0.643377 20.877 0.321685 20.5553 0.321685 20.1693C0.321685 19.7833 0.643377 19.4616 1.02937 19.4616C1.41539 19.4616 1.73708 19.7833 1.73708 20.1693ZM6.35316 15.8266C6.35316 16.5665 5.742 17.1777 5.00213 17.1777C4.26226 17.1777 3.65106 16.5665 3.65106 15.8266C3.65106 15.0868 4.26226 14.4756 5.00213 14.4756C5.742 14.4756 6.35316 15.0868 6.35316 15.8266ZM26.2491 15.8266C26.2491 16.5665 25.6379 17.1777 24.898 17.1777C24.1582 17.1777 23.547 16.5665 23.547 15.8266C23.547 15.0868 24.1582 14.4756 24.898 14.4756C25.6379 14.4756 26.2491 15.0868 26.2491 15.8266ZM9.63989 14.6545C9.83018 14.9942 10.0534 15.3101 10.3047 15.598C10.3191 15.6721 10.3259 15.7487 10.3259 15.8266C10.3259 16.0829 10.2526 16.3238 10.1246 16.5283C9.65605 16.71 9.21809 16.9254 8.80869 17.1661C8.14549 17.0839 7.62382 16.5102 7.62382 15.8266C7.62382 15.0868 8.23499 14.4756 8.97486 14.4756C9.21595 14.4756 9.44339 14.5405 9.63989 14.6545ZM22.2763 15.8266C22.2763 16.5029 21.7657 17.0716 21.1125 17.1629C20.694 16.9171 20.2457 16.6976 19.7661 16.5129C19.644 16.3118 19.5742 16.0765 19.5742 15.8266C19.5742 15.7599 19.5792 15.6942 19.5904 15.6304C19.8571 15.3283 20.0931 14.9951 20.2931 14.6355C20.4821 14.5335 20.6976 14.4756 20.9253 14.4756C21.6651 14.4756 22.2763 15.0868 22.2763 15.8266ZM2.05874 15.8266C2.05874 16.3896 1.59231 16.856 1.02937 16.856C0.466424 16.856 0 16.3896 0 15.8266C0 15.2637 0.466424 14.7973 1.02937 14.7973C1.59231 14.7973 2.05874 15.2637 2.05874 15.8266ZM29.9001 15.8266C29.9001 16.3896 29.4337 16.856 28.8708 16.856C28.3078 16.856 27.8414 16.3896 27.8414 15.8266C27.8414 15.2637 28.3078 14.7973 28.8708 14.7973C29.4337 14.7973 29.9001 15.2637 29.9001 15.8266ZM26.2491 11.484C26.2491 12.2238 25.6379 12.835 24.898 12.835C24.1582 12.835 23.547 12.2238 23.547 11.484C23.547 10.7441 24.1582 10.1329 24.898 10.1329C25.6379 10.1329 26.2491 10.7441 26.2491 11.484ZM6.35316 11.484C6.35316 12.2238 5.742 12.835 5.00213 12.835C4.26226 12.835 3.65106 12.2238 3.65106 11.484C3.65106 10.7441 4.26226 10.1329 5.00213 10.1329C5.742 10.1329 6.35316 10.7441 6.35316 11.484ZM8.69088 11.1623C8.69088 11.7398 8.76143 12.3 8.90074 12.8312C8.19439 12.7936 7.62382 12.1988 7.62382 11.484C7.62382 10.8132 8.12621 10.2482 8.77191 10.1502C8.71593 10.4767 8.69088 10.8156 8.69088 11.1623ZM22.2763 11.484C22.2763 12.1912 21.7179 12.7808 21.0221 12.83C21.1642 12.2899 21.2364 11.7192 21.2364 11.1301C21.2364 10.7959 21.2134 10.4694 21.1614 10.1553C21.791 10.2676 22.2763 10.8247 22.2763 11.484ZM29.9001 11.484C29.9001 12.0469 29.4337 12.5133 28.8708 12.5133C28.3078 12.5133 27.8414 12.0469 27.8414 11.484C27.8414 10.921 28.3078 10.4546 28.8708 10.4546C29.4337 10.4546 29.9001 10.921 29.9001 11.484ZM2.05874 11.484C2.05874 12.0469 1.59231 12.5133 1.02937 12.5133C0.466424 12.5133 0 12.0469 0 11.484C0 10.921 0.466424 10.4546 1.02937 10.4546C1.59231 10.4546 2.05874 10.921 2.05874 11.484ZM25.9274 7.14127C25.9274 7.70422 25.4609 8.17065 24.898 8.17065C24.3351 8.17065 23.8686 7.70422 23.8686 7.14127C23.8686 6.57836 24.3351 6.1119 24.898 6.1119C25.4609 6.1119 25.9274 6.57836 25.9274 7.14127ZM21.9546 7.14127C21.9546 7.70422 21.4882 8.17065 20.9253 8.17065C20.7839 8.17065 20.6486 8.14123 20.5253 8.08817C20.3509 7.72577 20.1408 7.38819 19.8991 7.07967C19.9304 6.54456 20.3831 6.1119 20.9253 6.1119C21.4882 6.1119 21.9546 6.57836 21.9546 7.14127ZM10.0042 7.13987C9.78493 7.42405 9.59324 7.73288 9.43013 8.06129C9.29283 8.13153 9.13789 8.17065 8.97486 8.17065C8.41191 8.17065 7.94548 7.70422 7.94548 7.14127C7.94548 6.57836 8.41191 6.1119 8.97486 6.1119C9.53733 6.1119 10.0034 6.57758 10.0042 7.13987ZM6.03151 7.14127C6.03151 7.70422 5.56507 8.17065 5.00213 8.17065C4.43919 8.17065 3.97276 7.70422 3.97276 7.14127C3.97276 6.57836 4.43919 6.1119 5.00213 6.1119C5.56507 6.1119 6.03151 6.57836 6.03151 7.14127ZM29.5784 7.14127C29.5784 7.5273 29.2568 7.84899 28.8708 7.84899C28.4847 7.84899 28.1631 7.5273 28.1631 7.14127C28.1631 6.75528 28.4847 6.43359 28.8708 6.43359C29.2568 6.43359 29.5784 6.75528 29.5784 7.14127ZM1.73708 7.14127C1.73708 7.5273 1.41539 7.84899 1.02937 7.84899C0.643377 7.84899 0.321685 7.5273 0.321685 7.14127C0.321685 6.75528 0.643377 6.43359 1.02937 6.43359C1.41539 6.43359 1.73708 6.75528 1.73708 7.14127ZM17.9658 2.79863C17.9658 3.36154 17.4994 3.828 16.9364 3.828C16.3735 3.828 15.907 3.36154 15.907 2.79863C15.907 2.23569 16.3735 1.76925 16.9364 1.76925C17.4994 1.76925 17.9658 2.23569 17.9658 2.79863ZM13.9931 2.79863C13.9931 3.36154 13.5266 3.828 12.9637 3.828C12.4008 3.828 11.9343 3.36154 11.9343 2.79863C11.9343 2.23569 12.4008 1.76925 12.9637 1.76925C13.5266 1.76925 13.9931 2.23569 13.9931 2.79863ZM29.5784 2.79863C29.5784 3.18462 29.2568 3.50631 28.8708 3.50631C28.4847 3.50631 28.1631 3.18462 28.1631 2.79863C28.1631 2.41261 28.4847 2.09091 28.8708 2.09091C29.2568 2.09091 29.5784 2.41261 29.5784 2.79863ZM25.6057 2.79863C25.6057 3.18462 25.284 3.50631 24.898 3.50631C24.512 3.50631 24.1903 3.18462 24.1903 2.79863C24.1903 2.41261 24.512 2.09091 24.898 2.09091C25.284 2.09091 25.6057 2.41261 25.6057 2.79863ZM21.633 2.79863C21.633 3.18462 21.3113 3.50631 20.9253 3.50631C20.5392 3.50631 20.2176 3.18462 20.2176 2.79863C20.2176 2.41261 20.5392 2.09091 20.9253 2.09091C21.3113 2.09091 21.633 2.41261 21.633 2.79863ZM9.68257 2.79863C9.68257 3.18462 9.36088 3.50631 8.97486 3.50631C8.58883 3.50631 8.26718 3.18462 8.26718 2.79863C8.26718 2.41261 8.58883 2.09091 8.97486 2.09091C9.36088 2.09091 9.68257 2.41261 9.68257 2.79863ZM5.70981 2.79863C5.70981 3.18462 5.38812 3.50631 5.00213 3.50631C4.61611 3.50631 4.29441 3.18462 4.29441 2.79863C4.29441 2.41261 4.61611 2.09091 5.00213 2.09091C5.38812 2.09091 5.70981 2.41261 5.70981 2.79863ZM1.73708 2.79863C1.73708 3.18462 1.41539 3.50631 1.02937 3.50631C0.643377 3.50631 0.321685 3.18462 0.321685 2.79863C0.321685 2.41261 0.643377 2.09091 1.02937 2.09091C1.41539 2.09091 1.73708 2.41261 1.73708 2.79863Z" fill="black" fill-opacity="0.85"/>
  <path d="M14.9636 15.9231C17.2636 15.9231 19.3063 13.8161 19.3063 11.1301C19.3063 8.44408 17.2636 6.49792 14.9636 6.49792C12.6636 6.49792 10.621 8.49234 10.621 11.1623C10.621 13.8161 12.6636 15.9231 14.9636 15.9231ZM8.51396 25.4609L21.4133 25.4609C23.279 25.4609 23.842 24.9302 23.842 23.9973C23.842 21.2791 20.4483 17.5155 14.9636 17.5155C9.479 17.5155 6.08529 21.2791 6.08529 23.9973C6.08529 24.9302 6.64822 25.4609 8.51396 25.4609Z" fill="black" fill-opacity="0.85"/>
 </g>
</svg>
