<?xml version="1.0" encoding="UTF-8"?>
<!--Generator: Apple Native CoreSVG 326-->
<!DOCTYPE svg
PUBLIC "-//W3C//DTD SVG 1.1//EN"
       "http://www.w3.org/Graphics/SVG/1.1/DTD/svg11.dtd">
<svg version="1.1" xmlns="http://www.w3.org/2000/svg" xmlns:xlink="http://www.w3.org/1999/xlink" viewBox="0 0 50.2541 21.521">
 <g>
  <rect height="21.521" opacity="0" width="50.2541" x="0" y="0"/>
  <path d="M14.9467 7.37498L9.76669 7.37498C9.47661 7.37498 9.3499 7.40818 9.16488 7.52229L2.90712 11.6774L9.44888 11.6774L9.42702 11.6945C8.56715 12.3684 9.60691 13.7213 10.6467 12.9152L11.7041 12.0896L11.7041 13.1645L3.93496 13.1645L3.93496 18.4848C3.93496 19.3866 4.37125 19.839 5.2575 19.839L11.8277 19.839C12.1335 20.932 13.019 21.521 14.374 21.521L4.91224 21.521C3.20989 21.521 2.23684 20.5851 2.23684 18.8878L2.23684 13.1645L0.897874 13.1645C-0.0368795 13.1645-0.27508 12.1186 0.341055 11.694L8.3045 6.3061C8.72423 6.0216 9.18462 5.88792 9.76669 5.88792L16.847 5.88792Z" fill="black" fill-opacity="0.85"/>
  <path d="M41.95 6.3061L49.9134 11.694C50.5188 12.1186 50.2752 13.1645 49.3511 13.1645L48.0071 13.1645L48.0071 18.8878C48.0071 20.5851 47.034 21.521 45.326 21.521L35.8643 21.521C37.2149 21.521 38.0963 20.932 38.4006 19.839L44.9863 19.839C45.8671 19.839 46.3195 19.3866 46.3195 18.4848L46.3195 13.1645L38.5236 13.1645L38.5236 12.0896L39.5915 12.9152C40.6313 13.7213 41.671 12.3684 40.8113 11.6945L40.7895 11.6774L47.3472 11.6774L41.079 7.52229C40.8989 7.40818 40.7778 7.37498 40.4821 7.37498L35.2916 7.37498L33.3913 5.88792L40.4987 5.88792C41.0753 5.88792 41.5252 6.0216 41.95 6.3061Z" fill="black" fill-opacity="0.85"/>
  <path d="M10.6467 12.9152L24.5021 2.09263C24.675 1.95239 24.9007 1.84484 25.1219 1.84484C25.3376 1.84484 25.5582 1.95239 25.7467 2.09263L39.5915 12.9152C40.6313 13.7213 41.671 12.3684 40.8113 11.6945L26.6458 0.60915C26.1487 0.219143 25.6351 0.00502504 25.1219 0.00502504C24.5927 0.00502504 24.0951 0.219143 23.5925 0.60915L9.42702 11.6945C8.56715 12.3684 9.60691 13.7213 10.6467 12.9152ZM14.374 21.521L35.8643 21.521C37.5722 21.521 38.5236 20.5851 38.5236 18.8878L38.5236 10.5578L36.8522 10.3597L36.8522 18.4848C36.8522 19.3866 36.3998 19.839 35.519 19.839L14.7192 19.839C13.828 19.839 13.3917 19.3866 13.3917 18.4848L13.3917 10.3597L11.7041 10.5578L11.7041 18.8878C11.7041 20.5851 12.6661 21.521 14.374 21.521ZM21.8076 20.3657L28.4202 20.3657L28.4202 14.0486C28.4202 13.5797 28.089 13.254 27.6145 13.254L22.6183 13.254C22.1599 13.254 21.8076 13.5797 21.8076 14.0486Z" fill="black" fill-opacity="0.85"/>
 </g>
</svg>
