<?xml version="1.0" encoding="UTF-8"?>
<!--Generator: Apple Native CoreSVG 326-->
<!DOCTYPE svg
PUBLIC "-//W3C//DTD SVG 1.1//EN"
       "http://www.w3.org/Graphics/SVG/1.1/DTD/svg11.dtd">
<svg version="1.1" xmlns="http://www.w3.org/2000/svg" xmlns:xlink="http://www.w3.org/1999/xlink" viewBox="0 0 20.9705 26.9245">
 <g>
  <rect height="26.9245" opacity="0" width="20.9705" x="0" y="0"/>
  <path d="M4.61398 11.7974C4.90043 11.7974 5.0919 11.6486 5.18237 11.2773L5.70719 9.86726L8.17466 9.86726L8.71002 11.2773C8.80049 11.6381 9.00252 11.7974 9.27842 11.7974C9.66137 11.7974 9.86894 11.5898 9.86894 11.2391C9.86894 11.1486 9.84229 11.0209 9.80511 10.8727L7.8136 5.52406C7.65981 5.07379 7.37839 4.8562 6.93313 4.8562C6.50899 4.8562 6.23258 5.07379 6.07879 5.52406L4.0873 10.8727C4.0501 11.0104 4.02346 11.1486 4.02346 11.2391C4.02346 11.5898 4.24157 11.7974 4.61398 11.7974ZM5.97959 8.92443L6.90651 6.16793L6.97534 6.16793L7.91281 8.92443ZM12.0966 6.98625L16.3512 6.98625C16.7447 6.98625 17.0372 6.68874 17.0372 6.30077C17.0372 5.92886 16.7447 5.63638 16.3512 5.63638L12.0966 5.63638C11.6981 5.63638 11.4056 5.92886 11.4056 6.30077C11.4056 6.68874 11.6981 6.98625 12.0966 6.98625ZM12.0966 11.3943L16.3512 11.3943C16.7447 11.3943 17.0372 11.0968 17.0372 10.7088C17.0372 10.3369 16.7447 10.0444 16.3512 10.0444L12.0966 10.0444C11.6981 10.0444 11.4056 10.3369 11.4056 10.7088C11.4056 11.0968 11.6981 11.3943 12.0966 11.3943ZM3.8731 22.1135L4.64351 22.1135L6.43199 20.3497C6.69035 20.113 6.95373 20.0104 7.21158 20.0104C7.47496 20.0104 7.75997 20.1185 8.01782 20.3497L9.08142 21.3218L11.7741 18.9474C12.0918 18.689 12.4039 18.5598 12.71 18.5598C13.0432 18.5598 13.3825 18.6729 13.6409 18.9529L16.3326 22.008L17.103 22.008L17.103 15.6953C17.103 14.5855 16.5351 14.023 15.4253 14.023L5.55588 14.023C4.46718 14.023 3.8731 14.5855 3.8731 15.6953ZM8.11986 18.9413C7.33523 18.9413 6.70089 18.2909 6.70089 17.5168C6.70089 16.7322 7.33523 16.0768 8.11986 16.0979C8.89946 16.119 9.54436 16.7322 9.54436 17.5168C9.54436 18.2909 8.89946 18.9413 8.11986 18.9413ZM0.000154132 23.1218C0.000154132 25.6509 1.26322 26.9245 3.76067 26.9245L17.1994 26.9245C19.7024 26.9245 20.9705 25.6509 20.9705 23.1218L20.9705 3.80877C20.9705 1.29021 19.7024 0.00604678 17.1994 0.00604678L3.76067 0.00604678C1.26322 0.00604678 0.000154132 1.29021 0.000154132 3.80877ZM1.72993 23.0896L1.72993 3.84093C1.72993 2.47823 2.45124 1.73581 3.85616 1.73581L17.1144 1.73581C18.5088 1.73581 19.2357 2.47823 19.2357 3.84093L19.2357 23.0896C19.2357 24.4523 18.5088 25.1947 17.1144 25.1947L3.85616 25.1947C2.45124 25.1947 1.72993 24.4523 1.72993 23.0896Z" fill="black" fill-opacity="0.85"/>
 </g>
</svg>
