<?xml version="1.0" encoding="UTF-8"?>
<!--Generator: Apple Native CoreSVG 326-->
<!DOCTYPE svg
PUBLIC "-//W3C//DTD SVG 1.1//EN"
       "http://www.w3.org/Graphics/SVG/1.1/DTD/svg11.dtd">
<svg version="1.1" xmlns="http://www.w3.org/2000/svg" xmlns:xlink="http://www.w3.org/1999/xlink" viewBox="0 0 36.0815 18.9668">
 <g>
  <rect height="18.9668" opacity="0" width="36.0815" x="0" y="0"/>
  <path d="M2.60789 17.3565C2.60789 18.4446 3.24869 18.9507 3.99502 18.9507C4.3202 18.9507 4.66647 18.8547 4.9856 18.6738L18.2172 10.9127C19.0409 10.4237 19.3822 10.0563 19.3822 9.47536C19.3822 8.89438 19.0409 8.52699 18.2172 8.038L4.9856 0.276923C4.66647 0.0959985 4.3202 0 3.99502 0C3.24869 0 2.60789 0.506105 2.60789 1.5942ZM19.3178 17.3565C19.3178 18.4446 19.9586 18.9507 20.705 18.9507C21.0301 18.9507 21.3658 18.8547 21.685 18.6738L34.9166 10.9127C35.7508 10.4237 36.0815 10.0563 36.0815 9.47536C36.0815 8.89438 35.7508 8.52699 34.9166 8.038L21.685 0.276923C21.3658 0.0959985 21.0301 0 20.705 0C19.9586 0 19.3178 0.506105 19.3178 1.5942Z" fill="white" fill-opacity="0.85"/>
 </g>
</svg>
