<?xml version="1.0" encoding="UTF-8"?>
<!--Generator: Apple Native CoreSVG 326-->
<!DOCTYPE svg
PUBLIC "-//W3C//DTD SVG 1.1//EN"
       "http://www.w3.org/Graphics/SVG/1.1/DTD/svg11.dtd">
<svg version="1.1" xmlns="http://www.w3.org/2000/svg" xmlns:xlink="http://www.w3.org/1999/xlink" viewBox="0 0 14.8301 20.5531">
 <g>
  <rect height="20.5531" opacity="0" width="14.8301" x="0" y="0"/>
  <path d="M1.56357 20.537L4.38074 20.537C5.41156 20.537 5.93374 20.0148 5.93374 18.9734L5.93374 1.56358C5.93374 0.47998 5.41156 0 4.38074 0L1.56357 0C0.522173 0 0 0.522192 0 1.56358L0 18.9734C0 20.0148 0.522173 20.537 1.56357 20.537ZM10.4583 20.537L13.2754 20.537C14.3063 20.537 14.8284 20.0148 14.8284 18.9734L14.8284 1.56358C14.8284 0.47998 14.3063 0 13.2754 0L10.4583 0C9.41691 0 8.89473 0.522192 8.89473 1.56358L8.89473 18.9734C8.89473 20.0148 9.41691 20.537 10.4583 20.537Z" fill="white" fill-opacity="0.85"/>
 </g>
</svg>
