<?xml version="1.0" encoding="UTF-8"?>
<!--Generator: Apple Native CoreSVG 326-->
<!DOCTYPE svg
PUBLIC "-//W3C//DTD SVG 1.1//EN"
       "http://www.w3.org/Graphics/SVG/1.1/DTD/svg11.dtd">
<svg version="1.1" xmlns="http://www.w3.org/2000/svg" xmlns:xlink="http://www.w3.org/1999/xlink" viewBox="0 0 36.101 18.9668">
 <g>
  <rect height="18.9668" opacity="0" width="36.101" x="0" y="0"/>
  <path d="M33.4841 17.3565L33.4841 1.5942C33.4841 0.506105 32.8433 0 32.0971 0C31.7719 0 31.4256 0.0959985 31.1009 0.276923L17.8693 8.038C17.0351 8.52699 16.7099 8.89438 16.7099 9.47536C16.7099 10.0563 17.0351 10.4237 17.8693 10.9127L31.1009 18.6738C31.4256 18.8547 31.7719 18.9507 32.0971 18.9507C32.8433 18.9507 33.4841 18.4446 33.4841 17.3565ZM16.7743 17.3565L16.7743 1.5942C16.7743 0.506105 16.1334 0 15.3816 0C15.062 0 14.7157 0.0959985 14.391 0.276923L1.15942 8.038C0.335723 8.52699 7.77156e-16 8.89438 7.77156e-16 9.47536C7.77156e-16 10.0563 0.335723 10.4237 1.15942 10.9127L14.391 18.6738C14.7157 18.8547 15.062 18.9507 15.3816 18.9507C16.1334 18.9507 16.7743 18.4446 16.7743 17.3565Z" fill="white" fill-opacity="0.85"/>
 </g>
</svg>
