<?xml version="1.0" encoding="UTF-8"?>
<svg version="1.1" xmlns="http://www.w3.org/2000/svg" width="128" height="327">
<path d="M0 0 C6.42706079 5.54056965 10.38152716 12.68575493 11.36593628 21.14431763 C11.50969594 24.69765972 11.52850465 28.22906581 11.49609375 31.78515625 C11.49754898 33.08142441 11.49900421 34.37769257 11.50050354 35.71324158 C11.50187847 38.44062965 11.48948247 41.16748604 11.46655273 43.89477539 C11.43814159 47.36673947 11.44092494 50.83782409 11.45364285 54.30985355 C11.46232201 57.65587746 11.44713434 61.00164709 11.43359375 64.34765625 C11.43652939 65.58226089 11.43946503 66.81686554 11.44248962 68.08888245 C11.3190191 79.46125774 9.32966842 86.53517242 1.41015625 94.828125 C-4.78386872 100.40977473 -11.53777679 102.36677111 -19.828125 102.2109375 C-28.26963682 101.39107844 -35.31158788 97.34267592 -40.76171875 90.92578125 C-47.06391511 82.18205604 -47.30408093 73.13552159 -47.265625 62.625 C-47.26753845 61.46049316 -47.2694519 60.29598633 -47.27142334 59.09619141 C-47.27277826 56.6455056 -47.26913048 54.19481245 -47.26074219 51.74414062 C-47.25003315 48.01155339 -47.26066145 44.27944742 -47.2734375 40.546875 C-47.27211578 38.15624895 -47.26955314 35.76562319 -47.265625 33.375 C-47.26967346 32.26850098 -47.27372192 31.16200195 -47.27789307 30.02197266 C-47.21455855 19.45947515 -45.97290713 11.22803042 -39 3 C-27.98800052 -7.84658318 -12.6294903 -8.66391655 0 0 Z M-37.6328125 7.13671875 C-41.8895973 12.93810832 -43.10963927 19.39349904 -43.16113281 26.47363281 C-43.17074036 27.54534729 -43.1803479 28.61706177 -43.19024658 29.72125244 C-43.19449646 30.87027039 -43.19874634 32.01928833 -43.203125 33.203125 C-43.20882507 34.39548767 -43.21452515 35.58785034 -43.22039795 36.81634521 C-43.22983588 39.3380037 -43.23637713 41.85967446 -43.24023438 44.38134766 C-43.24992907 48.22190086 -43.2809605 52.0619163 -43.3125 55.90234375 C-43.31903167 58.35676767 -43.32428149 60.8111954 -43.328125 63.265625 C-43.3404718 64.40654602 -43.3528186 65.54746704 -43.36553955 66.72296143 C-43.33819452 76.60295817 -41.77509238 83.97931528 -34.90234375 91.2734375 C-29.16204205 96.48332118 -23.071355 98.38169546 -15.4375 98.28125 C-8.5845928 97.49052994 -2.78663448 93.78663448 2 89 C5.88037781 83.47792389 7.11714143 78.8196769 7.16113281 72.16503906 C7.17074036 70.9899176 7.1803479 69.81479614 7.19024658 68.60406494 C7.19449646 67.33737976 7.19874634 66.07069458 7.203125 64.765625 C7.20882507 63.45849548 7.21452515 62.15136597 7.22039795 60.80462646 C7.23088965 58.03739027 7.23674386 55.27018296 7.24023438 52.50292969 C7.24570663 48.97474591 7.26971467 45.44695047 7.29820633 41.91888809 C7.32143092 38.53447524 7.32328905 35.15011334 7.328125 31.765625 C7.3404718 30.50703674 7.3528186 29.24844849 7.36553955 27.95172119 C7.34377184 19.33682072 6.68121866 12.04784533 0.5625 5.3828125 C-4.93427355 0.51816791 -10.84144664 -1.85296602 -18.1640625 -2.19140625 C-25.97679125 -1.66410087 -32.41378485 1.30589121 -37.6328125 7.13671875 Z " fill="#E5E7EB" transform="translate(81,69)"/>
<path d="M0 0 C4.00517396 1.60373148 6.6771098 4.42113986 9.640625 7.4453125 C10.16767029 7.97518768 10.69471558 8.50506287 11.23773193 9.05099487 C12.91325675 10.73767825 14.58167722 12.43119564 16.25 14.125 C17.38755851 15.27259388 18.52557436 16.41973461 19.6640625 17.56640625 C22.44803465 20.37238137 25.2256576 23.18450464 28 26 C34.18134869 20.89551178 39.79822878 15.31705058 45.4375 9.625 C46.35982422 8.69816406 47.28214844 7.77132813 48.23242188 6.81640625 C50.49058625 4.54654154 52.74636942 2.27436462 55 0 C55.99 0.33 56.98 0.66 58 1 C56.34763349 5.29067546 53.1094793 8.1429553 49.8984375 11.296875 C49.30197418 11.89050842 48.70551086 12.48414185 48.0909729 13.09576416 C46.1903019 14.98526627 44.28278526 16.86768392 42.375 18.75 C41.08287532 20.03209065 39.79120324 21.31463761 38.5 22.59765625 C35.33855521 25.73708432 32.1709539 28.87017801 29 32 C24.92362878 30.37724852 22.17387958 27.46284177 19.140625 24.40625 C18.59138367 23.85892212 18.04214233 23.31159424 17.47625732 22.74768066 C16.32074141 21.5935222 15.16773315 20.43684833 14.01708984 19.27783203 C12.249265 17.49926054 10.4709787 15.73165237 8.69140625 13.96484375 C7.56967029 12.84178692 6.44855449 11.71811024 5.328125 10.59375 C4.79382874 10.0635022 4.25953247 9.53325439 3.70904541 8.98693848 C0 5.22993854 0 5.22993854 0 3 C-0.66 2.67 -1.32 2.34 -2 2 C-1.34 1.34 -0.68 0.68 0 0 Z " fill="#E9EBEE" transform="translate(35,286)"/>
<path d="M0 0 C6.64701697 5.48600467 12.55999353 11.57480439 18.50390625 17.80664062 C19.26832031 18.58845703 20.03273438 19.37027344 20.8203125 20.17578125 C21.50367676 20.88645752 22.18704102 21.59713379 22.89111328 22.3293457 C25.28455245 24.22542167 26.99849481 24.65009716 30 25 C29.01 25.99 28.02 26.98 27 28 C20.7178966 22.67096012 14.82572205 17.0087476 9 11.1875 C8.12988281 10.32962891 7.25976562 9.47175781 6.36328125 8.58789062 C5.54214844 7.76869141 4.72101562 6.94949219 3.875 6.10546875 C3.12992188 5.36449951 2.38484375 4.62353027 1.6171875 3.86010742 C0 2 0 2 0 0 Z " fill="#DFE1E4" transform="translate(37,289)"/>
<path d="M0 0 C2 3 2 3 1.375 6.4375 C0.01655007 9.95712027 -1.14261825 11.61884854 -4 14 C-4 10.05611769 -3.32331967 7.65858967 -2 4 C-1.67 3.01 -1.34 2.02 -1 1 C-0.67 0.67 -0.34 0.34 0 0 Z " fill="#E3E5E8" transform="translate(89,146)"/>
<path d="M0 0 C1.32 0 2.64 0 4 0 C4 0.66 4 1.32 4 2 C2.68 2 1.36 2 0 2 C0 1.34 0 0.68 0 0 Z " fill="#E8EAEC" transform="translate(61,129)"/>
</svg>
