<?xml version="1.0" encoding="UTF-8"?>
<svg version="1.1" xmlns="http://www.w3.org/2000/svg" width="128" height="327">
<path d="M0 0 C6.42706079 5.54056965 10.38152716 12.68575493 11.36593628 21.14431763 C11.50969594 24.69765972 11.52850465 28.22906581 11.49609375 31.78515625 C11.49754898 33.08142441 11.49900421 34.37769257 11.50050354 35.71324158 C11.50187847 38.44062965 11.48948247 41.16748604 11.46655273 43.89477539 C11.43814159 47.36673947 11.44092494 50.83782409 11.45364285 54.30985355 C11.46232201 57.65587746 11.44713434 61.00164709 11.43359375 64.34765625 C11.43652939 65.58226089 11.43946503 66.81686554 11.44248962 68.08888245 C11.3190191 79.46125774 9.32966842 86.53517242 1.41015625 94.828125 C-4.78386872 100.40977473 -11.53777679 102.36677111 -19.828125 102.2109375 C-28.26963682 101.39107844 -35.31158788 97.34267592 -40.76171875 90.92578125 C-47.06391511 82.18205604 -47.30408093 73.13552159 -47.265625 62.625 C-47.26753845 61.46049316 -47.2694519 60.29598633 -47.27142334 59.09619141 C-47.27277826 56.6455056 -47.26913048 54.19481245 -47.26074219 51.74414062 C-47.25003315 48.01155339 -47.26066145 44.27944742 -47.2734375 40.546875 C-47.27211578 38.15624895 -47.26955314 35.76562319 -47.265625 33.375 C-47.26967346 32.26850098 -47.27372192 31.16200195 -47.27789307 30.02197266 C-47.21455855 19.45947515 -45.97290713 11.22803042 -39 3 C-27.98800052 -7.84658318 -12.6294903 -8.66391655 0 0 Z M-37.6328125 7.13671875 C-41.87047399 12.91204598 -43.11617142 19.34504325 -43.14526367 26.39770508 C-43.15164352 27.4526265 -43.15802338 28.50754791 -43.16459656 29.59443665 C-43.16570938 30.72471786 -43.1668222 31.85499908 -43.16796875 33.01953125 C-43.17129715 34.19206955 -43.17462555 35.36460785 -43.17805481 36.57267761 C-43.18311306 39.05145883 -43.18546348 41.53024683 -43.18530273 44.0090332 C-43.18748587 47.78803829 -43.20564441 51.56674979 -43.22460938 55.34570312 C-43.22754424 57.75781151 -43.22952841 60.16992127 -43.23046875 62.58203125 C-43.23765427 63.70623978 -43.24483978 64.8304483 -43.25224304 65.98872375 C-43.2246029 75.55099075 -42.4030597 83.37696841 -35.46484375 90.59765625 C-30.19048768 95.487549 -24.78074561 98.04834241 -17.5625 98.4375 C-9.85631646 98.14519649 -3.34892262 94.34892262 2 89 C5.88037781 83.47792389 7.11714143 78.8196769 7.16113281 72.16503906 C7.17074036 70.9899176 7.1803479 69.81479614 7.19024658 68.60406494 C7.19449646 67.33737976 7.19874634 66.07069458 7.203125 64.765625 C7.20882507 63.45849548 7.21452515 62.15136597 7.22039795 60.80462646 C7.23088965 58.03739027 7.23674386 55.27018296 7.24023438 52.50292969 C7.24570663 48.97474591 7.26971467 45.44695047 7.29820633 41.91888809 C7.32143092 38.53447524 7.32328905 35.15011334 7.328125 31.765625 C7.3404718 30.50703674 7.3528186 29.24844849 7.36553955 27.95172119 C7.34377184 19.33682072 6.68121866 12.04784533 0.5625 5.3828125 C-4.93427355 0.51816791 -10.84144664 -1.85296602 -18.1640625 -2.19140625 C-25.97679125 -1.66410087 -32.41378485 1.30589121 -37.6328125 7.13671875 Z " fill="#E5E7EA" transform="translate(81,69)"/>
<path d="M0 0 C3.90851199 1.58431453 6.52367356 4.26635095 9.421875 7.2265625 C9.92672424 7.73424164 10.43157349 8.24192078 10.95172119 8.76498413 C12.55592096 10.38033842 14.15300856 12.00252209 15.75 13.625 C16.83938107 14.72441698 17.9292199 15.82338059 19.01953125 16.921875 C21.68501885 19.6093602 24.34415143 22.30299021 27 25 C30.91189274 23.42780802 33.43800205 20.73889499 36.28125 17.73828125 C37.29774906 16.69164143 38.31468938 15.64543 39.33203125 14.59960938 C40.92383104 12.9518575 42.51140476 11.30052307 44.09130859 9.64135742 C45.62276569 8.0375723 47.1693175 6.44967926 48.71875 4.86328125 C49.42360535 4.1103051 49.42360535 4.1103051 50.1427002 3.34211731 C51.49804688 1.96606445 51.49804688 1.96606445 54 0 C56.33007812 0.19604492 56.33007812 0.19604492 58 1 C56.34763349 5.29067546 53.1094793 8.1429553 49.8984375 11.296875 C49.30197418 11.89050842 48.70551086 12.48414185 48.0909729 13.09576416 C46.1903019 14.98526627 44.28278526 16.86768392 42.375 18.75 C41.08287532 20.03209065 39.79120324 21.31463761 38.5 22.59765625 C35.33855521 25.73708432 32.1709539 28.87017801 29 32 C24.70932454 30.34763349 21.8570447 27.1094793 18.703125 23.8984375 C18.10949158 23.30197418 17.51585815 22.70551086 16.90423584 22.0909729 C15.01473373 20.1903019 13.13231608 18.28278526 11.25 16.375 C9.96790935 15.08287532 8.68536239 13.79120324 7.40234375 12.5 C4.26291568 9.33855521 1.12982199 6.1709539 -2 3 C-1.34 2.01 -0.68 1.02 0 0 Z " fill="#E7EAED" transform="translate(35,286)"/>
<path d="M0 0 C6.18134869 5.10448822 11.79822878 10.68294942 17.4375 16.375 C18.35982422 17.30183594 19.28214844 18.22867187 20.23242188 19.18359375 C22.49058625 21.45345846 24.74636942 23.72563538 27 26 C31.00517396 24.39626852 33.6771098 21.57886014 36.640625 18.5546875 C37.43119293 17.75987473 37.43119293 17.75987473 38.23773193 16.94900513 C39.91325675 15.26232175 41.58167722 13.56880436 43.25 11.875 C44.38755851 10.72740612 45.52557436 9.58026539 46.6640625 8.43359375 C49.44803465 5.62761863 52.2256576 2.81549536 55 0 C55.99 0.99 56.98 1.98 58 3 C57.32517578 3.56763062 57.32517578 3.56763062 56.63671875 4.14672852 C50.45361804 9.44309948 44.72764562 15.15782058 39 20.9375 C38.02497614 21.9175531 37.0497172 22.8973724 36.07421875 23.87695312 C33.71383382 26.24902313 31.35583095 28.6234086 29 31 C24.80374091 29.36221955 22.01323215 26.26676818 18.921875 23.1171875 C18.35043762 22.54292023 17.77900024 21.96865295 17.19024658 21.37698364 C15.37207055 19.5476419 13.56098508 17.71145807 11.75 15.875 C10.51608671 14.63105226 9.28171678 13.3875573 8.046875 12.14453125 C5.02593257 9.10157633 2.01132908 6.05246746 -1 3 C-0.67 2.01 -0.34 1.02 0 0 Z " fill="#DBDEE1" transform="translate(35,242)"/>
<path d="M0 0 C3.93687345 1.59049917 6.32767644 4.1578528 9.24609375 7.19140625 C10.25818723 8.22878527 11.27056577 9.26588624 12.28320312 10.30273438 C13.86476717 11.93396047 15.44295871 13.56819006 17.01586914 15.20776367 C18.5421056 16.79450646 20.08062556 18.36849393 21.62109375 19.94140625 C22.98899048 21.35981812 22.98899048 21.35981812 24.38452148 22.80688477 C27.07271 25.06096835 28.55420056 25.70724507 32 26 C31.01 26.99 30.02 27.98 29 29 C22.84360315 23.81160395 17.10288954 18.25886641 11.42431641 12.5546875 C9.97804325 11.10296045 8.52637682 9.6567755 7.07421875 8.2109375 C6.16285156 7.29828125 5.25148438 6.385625 4.3125 5.4453125 C3.48363281 4.61531738 2.65476563 3.78532227 1.80078125 2.93017578 C0 1 0 1 0 0 Z " fill="#DEE0E3" transform="translate(35,288)"/>
<path d="M0 0 C0.33 0.66 0.66 1.32 1 2 C1.99 2 2.98 2 4 2 C2.88059018 6.85077588 1.8665284 9.777893 -2 13 C-2 9.0644932 -1.2490025 6.66894484 0 3 C0 2.01 0 1.02 0 0 Z " fill="#E3E5E8" transform="translate(87,147)"/>
<path d="M0 0 C1.32 0 2.64 0 4 0 C4 2.31 4 4.62 4 7 C2.68 7 1.36 7 0 7 C0 4.69 0 2.38 0 0 Z " fill="#E4E6E9" transform="translate(61,123)"/>
</svg>
