<?xml version="1.0" encoding="UTF-8"?>
<svg version="1.1" xmlns="http://www.w3.org/2000/svg" width="128" height="327">
<path d="M0 0 C6.42706079 5.54056965 10.38152716 12.68575493 11.36593628 21.14431763 C11.50969594 24.69765972 11.52850465 28.22906581 11.49609375 31.78515625 C11.49754898 33.08142441 11.49900421 34.37769257 11.50050354 35.71324158 C11.50187847 38.44062965 11.48948247 41.16748604 11.46655273 43.89477539 C11.43814159 47.36673947 11.44092494 50.83782409 11.45364285 54.30985355 C11.46232201 57.65587746 11.44713434 61.00164709 11.43359375 64.34765625 C11.43652939 65.58226089 11.43946503 66.81686554 11.44248962 68.08888245 C11.3190191 79.46125774 9.32966842 86.53517242 1.41015625 94.828125 C-4.78386872 100.40977473 -11.53777679 102.36677111 -19.828125 102.2109375 C-28.26963682 101.39107844 -35.31158788 97.34267592 -40.76171875 90.92578125 C-47.06391511 82.18205604 -47.30408093 73.13552159 -47.265625 62.625 C-47.26753845 61.46049316 -47.2694519 60.29598633 -47.27142334 59.09619141 C-47.27277826 56.6455056 -47.26913048 54.19481245 -47.26074219 51.74414062 C-47.25003315 48.01155339 -47.26066145 44.27944742 -47.2734375 40.546875 C-47.27211578 38.15624895 -47.26955314 35.76562319 -47.265625 33.375 C-47.26967346 32.26850098 -47.27372192 31.16200195 -47.27789307 30.02197266 C-47.21455855 19.45947515 -45.97290713 11.22803042 -39 3 C-27.98800052 -7.84658318 -12.6294903 -8.66391655 0 0 Z M-37.6328125 7.13671875 C-41.8895973 12.93810832 -43.10963927 19.39349904 -43.16113281 26.47363281 C-43.17074036 27.54534729 -43.1803479 28.61706177 -43.19024658 29.72125244 C-43.19449646 30.87027039 -43.19874634 32.01928833 -43.203125 33.203125 C-43.20882507 34.39548767 -43.21452515 35.58785034 -43.22039795 36.81634521 C-43.22983588 39.3380037 -43.23637713 41.85967446 -43.24023438 44.38134766 C-43.24992907 48.22190086 -43.2809605 52.0619163 -43.3125 55.90234375 C-43.31903167 58.35676767 -43.32428149 60.8111954 -43.328125 63.265625 C-43.3404718 64.40654602 -43.3528186 65.54746704 -43.36553955 66.72296143 C-43.33819452 76.60295817 -41.77509238 83.97931528 -34.90234375 91.2734375 C-29.16204205 96.48332118 -23.071355 98.38169546 -15.4375 98.28125 C-8.5845928 97.49052994 -2.78663448 93.78663448 2 89 C5.88037781 83.47792389 7.11714143 78.8196769 7.16113281 72.16503906 C7.17074036 70.9899176 7.1803479 69.81479614 7.19024658 68.60406494 C7.19449646 67.33737976 7.19874634 66.07069458 7.203125 64.765625 C7.20882507 63.45849548 7.21452515 62.15136597 7.22039795 60.80462646 C7.23088965 58.03739027 7.23674386 55.27018296 7.24023438 52.50292969 C7.24570663 48.97474591 7.26971467 45.44695047 7.29820633 41.91888809 C7.32143092 38.53447524 7.32328905 35.15011334 7.328125 31.765625 C7.3404718 30.50703674 7.3528186 29.24844849 7.36553955 27.95172119 C7.34377184 19.33682072 6.68121866 12.04784533 0.5625 5.3828125 C-4.93427355 0.51816791 -10.84144664 -1.85296602 -18.1640625 -2.19140625 C-25.97679125 -1.66410087 -32.41378485 1.30589121 -37.6328125 7.13671875 Z " fill="#E5E7EB" transform="translate(81,69)"/>
<path d="M0 0 C7.18767913 3.15556645 12.1768164 10.13190638 17.19140625 15.96875 C20.30504645 19.46571091 23.65139835 22.72967735 27 26 C31.00517396 24.39626852 33.6771098 21.57886014 36.640625 18.5546875 C37.43119293 17.75987473 37.43119293 17.75987473 38.23773193 16.94900513 C39.91325675 15.26232175 41.58167722 13.56880436 43.25 11.875 C44.38755851 10.72740612 45.52557436 9.58026539 46.6640625 8.43359375 C49.44803465 5.62761863 52.2256576 2.81549536 55 0 C55.99 0.99 56.98 1.98 58 3 C48.43 12.57 38.86 22.14 29 32 C24.5456081 28.1819498 20.39223603 24.51309612 16.28515625 20.3828125 C15.78455185 19.88079315 15.28394745 19.3787738 14.76817322 18.86154175 C13.19721402 17.28506329 11.62980123 15.70511427 10.0625 14.125 C8.98656273 13.04403726 7.91039269 11.96330617 6.83398438 10.8828125 C4.21996708 8.25787359 1.60911404 5.62981372 -1 3 C-0.67 2.01 -0.34 1.02 0 0 Z " fill="#DCDEE1" transform="translate(35,286)"/>
<path d="M0 0 C2 3 2 3 1.375 6.4375 C0.01655007 9.95712027 -1.14261825 11.61884854 -4 14 C-4 10.05611769 -3.32331967 7.65858967 -2 4 C-1.67 3.01 -1.34 2.02 -1 1 C-0.67 0.67 -0.34 0.34 0 0 Z " fill="#E3E5E8" transform="translate(89,146)"/>
</svg>
