<?xml version="1.0" encoding="UTF-8"?>
<svg version="1.1" xmlns="http://www.w3.org/2000/svg" width="128" height="327">
<path d="M0 0 C6.42706079 5.54056965 10.38152716 12.68575493 11.36593628 21.14431763 C11.50969594 24.69765972 11.52850465 28.22906581 11.49609375 31.78515625 C11.49754898 33.08142441 11.49900421 34.37769257 11.50050354 35.71324158 C11.50187847 38.44062965 11.48948247 41.16748604 11.46655273 43.89477539 C11.43814159 47.36673947 11.44092494 50.83782409 11.45364285 54.30985355 C11.46232201 57.65587746 11.44713434 61.00164709 11.43359375 64.34765625 C11.43652939 65.58226089 11.43946503 66.81686554 11.44248962 68.08888245 C11.3190191 79.46125774 9.32966842 86.53517242 1.41015625 94.828125 C-4.78386872 100.40977473 -11.53777679 102.36677111 -19.828125 102.2109375 C-28.26963682 101.39107844 -35.31158788 97.34267592 -40.76171875 90.92578125 C-47.06391511 82.18205604 -47.30408093 73.13552159 -47.265625 62.625 C-47.26753845 61.46049316 -47.2694519 60.29598633 -47.27142334 59.09619141 C-47.27277826 56.6455056 -47.26913048 54.19481245 -47.26074219 51.74414062 C-47.25003315 48.01155339 -47.26066145 44.27944742 -47.2734375 40.546875 C-47.27211578 38.15624895 -47.26955314 35.76562319 -47.265625 33.375 C-47.26967346 32.26850098 -47.27372192 31.16200195 -47.27789307 30.02197266 C-47.21455855 19.45947515 -45.97290713 11.22803042 -39 3 C-27.98800052 -7.84658318 -12.6294903 -8.66391655 0 0 Z M-37.6328125 7.13671875 C-41.8895973 12.93810832 -43.10963927 19.39349904 -43.16113281 26.47363281 C-43.17074036 27.54534729 -43.1803479 28.61706177 -43.19024658 29.72125244 C-43.19449646 30.87027039 -43.19874634 32.01928833 -43.203125 33.203125 C-43.20882507 34.39548767 -43.21452515 35.58785034 -43.22039795 36.81634521 C-43.22983588 39.3380037 -43.23637713 41.85967446 -43.24023438 44.38134766 C-43.24992907 48.22190086 -43.2809605 52.0619163 -43.3125 55.90234375 C-43.31903167 58.35676767 -43.32428149 60.8111954 -43.328125 63.265625 C-43.3404718 64.40654602 -43.3528186 65.54746704 -43.36553955 66.72296143 C-43.33819452 76.60295817 -41.77509238 83.97931528 -34.90234375 91.2734375 C-29.16204205 96.48332118 -23.071355 98.38169546 -15.4375 98.28125 C-8.5845928 97.49052994 -2.78663448 93.78663448 2 89 C5.88037781 83.47792389 7.11714143 78.8196769 7.16113281 72.16503906 C7.17074036 70.9899176 7.1803479 69.81479614 7.19024658 68.60406494 C7.19449646 67.33737976 7.19874634 66.07069458 7.203125 64.765625 C7.20882507 63.45849548 7.21452515 62.15136597 7.22039795 60.80462646 C7.23088965 58.03739027 7.23674386 55.27018296 7.24023438 52.50292969 C7.24570663 48.97474591 7.26971467 45.44695047 7.29820633 41.91888809 C7.32143092 38.53447524 7.32328905 35.15011334 7.328125 31.765625 C7.3404718 30.50703674 7.3528186 29.24844849 7.36553955 27.95172119 C7.34377184 19.33682072 6.68121866 12.04784533 0.5625 5.3828125 C-4.93427355 0.51816791 -10.84144664 -1.85296602 -18.1640625 -2.19140625 C-25.97679125 -1.66410087 -32.41378485 1.30589121 -37.6328125 7.13671875 Z " fill="#E5E7EA" transform="translate(81,69)"/>
<path d="M0 0 C3.90851199 1.58431453 6.52367356 4.26635095 9.421875 7.2265625 C9.92672424 7.73424164 10.43157349 8.24192078 10.95172119 8.76498413 C12.55592096 10.38033842 14.15300856 12.00252209 15.75 13.625 C16.83938107 14.72441698 17.9292199 15.82338059 19.01953125 16.921875 C21.68501885 19.6093602 24.34415143 22.30299021 27 25 C30.91189274 23.42780802 33.43800205 20.73889499 36.28125 17.73828125 C37.29774906 16.69164143 38.31468938 15.64543 39.33203125 14.59960938 C40.92383104 12.9518575 42.51140476 11.30052307 44.09130859 9.64135742 C45.62276569 8.0375723 47.1693175 6.44967926 48.71875 4.86328125 C49.42360535 4.1103051 49.42360535 4.1103051 50.1427002 3.34211731 C51.49804688 1.96606445 51.49804688 1.96606445 54 0 C56.33007812 0.19604492 56.33007812 0.19604492 58 1 C56.34763349 5.29067546 53.1094793 8.1429553 49.8984375 11.296875 C49.30197418 11.89050842 48.70551086 12.48414185 48.0909729 13.09576416 C46.1903019 14.98526627 44.28278526 16.86768392 42.375 18.75 C41.08287532 20.03209065 39.79120324 21.31463761 38.5 22.59765625 C35.33855521 25.73708432 32.1709539 28.87017801 29 32 C24.70932454 30.34763349 21.8570447 27.1094793 18.703125 23.8984375 C18.10949158 23.30197418 17.51585815 22.70551086 16.90423584 22.0909729 C15.01473373 20.1903019 13.13231608 18.28278526 11.25 16.375 C9.96790935 15.08287532 8.68536239 13.79120324 7.40234375 12.5 C4.26291568 9.33855521 1.12982199 6.1709539 -2 3 C-1.34 2.01 -0.68 1.02 0 0 Z " fill="#EAECEF" transform="translate(35,286)"/>
<path d="M0 0 C3.90851199 1.58431453 6.52367356 4.26635095 9.421875 7.2265625 C9.92672424 7.73424164 10.43157349 8.24192078 10.95172119 8.76498413 C12.55592096 10.38033842 14.15300856 12.00252209 15.75 13.625 C16.83938107 14.72441698 17.9292199 15.82338059 19.01953125 16.921875 C21.68501885 19.6093602 24.34415143 22.30299021 27 25 C30.90851199 23.41568547 33.52367356 20.73364905 36.421875 17.7734375 C36.92672424 17.26575836 37.43157349 16.75807922 37.95172119 16.23501587 C39.55592096 14.61966158 41.15300856 12.99747791 42.75 11.375 C43.83938107 10.27558302 44.9292199 9.17661941 46.01953125 8.078125 C48.68501885 5.3906398 51.34415143 2.69700979 54 0 C54.99 0.33 55.98 0.66 57 1 C51.75541414 7.36590304 45.97902678 13.13570612 40.125 18.9375 C39.14039081 19.91708237 38.156014 20.89689837 37.171875 21.87695312 C34.78351797 24.25360252 32.39284788 26.62787356 30 29 C25.70341331 26.69369678 22.43901037 23.71631315 19.04296875 20.2734375 C18.49514236 19.72515289 17.94731598 19.17686829 17.38288879 18.61196899 C16.23342897 17.45950223 15.08638616 16.3046202 13.94165039 15.14746094 C12.18106834 13.3685012 10.41249299 11.59779489 8.64257812 9.828125 C7.52556641 8.70620214 6.40901329 7.58382247 5.29296875 6.4609375 C4.76180954 5.92866547 4.23065033 5.39639343 3.68339539 4.84799194 C0 1.11608196 0 1.11608196 0 0 Z " fill="#E1E3E6" transform="translate(35,288)"/>
<path d="M0 0 C0.33 0.66 0.66 1.32 1 2 C1.99 2 2.98 2 4 2 C2.88059018 6.85077588 1.8665284 9.777893 -2 13 C-2 9.0644932 -1.2490025 6.66894484 0 3 C0 2.01 0 1.02 0 0 Z " fill="#E3E5E8" transform="translate(87,147)"/>
<path d="" fill="#DEE0E4" transform="translate(0,0)"/>
</svg>
