<?xml version="1.0" encoding="UTF-8"?>
<svg version="1.1" xmlns="http://www.w3.org/2000/svg" width="128" height="327">
<path d="M0 0 C6.42706079 5.54056965 10.38152716 12.68575493 11.36593628 21.14431763 C11.50969594 24.69765972 11.52850465 28.22906581 11.49609375 31.78515625 C11.49754898 33.08142441 11.49900421 34.37769257 11.50050354 35.71324158 C11.50187847 38.44062965 11.48948247 41.16748604 11.46655273 43.89477539 C11.43814159 47.36673947 11.44092494 50.83782409 11.45364285 54.30985355 C11.46232201 57.65587746 11.44713434 61.00164709 11.43359375 64.34765625 C11.43652939 65.58226089 11.43946503 66.81686554 11.44248962 68.08888245 C11.3190191 79.46125774 9.32966842 86.53517242 1.41015625 94.828125 C-4.78386872 100.40977473 -11.53777679 102.36677111 -19.828125 102.2109375 C-28.26963682 101.39107844 -35.31158788 97.34267592 -40.76171875 90.92578125 C-47.06391511 82.18205604 -47.30408093 73.13552159 -47.265625 62.625 C-47.26753845 61.46049316 -47.2694519 60.29598633 -47.27142334 59.09619141 C-47.27277826 56.6455056 -47.26913048 54.19481245 -47.26074219 51.74414062 C-47.25003315 48.01155339 -47.26066145 44.27944742 -47.2734375 40.546875 C-47.27211578 38.15624895 -47.26955314 35.76562319 -47.265625 33.375 C-47.26967346 32.26850098 -47.27372192 31.16200195 -47.27789307 30.02197266 C-47.21455855 19.45947515 -45.97290713 11.22803042 -39 3 C-27.98800052 -7.84658318 -12.6294903 -8.66391655 0 0 Z M-37.6328125 7.13671875 C-41.87047399 12.91204598 -43.11617142 19.34504325 -43.14526367 26.39770508 C-43.15164352 27.4526265 -43.15802338 28.50754791 -43.16459656 29.59443665 C-43.16570938 30.72471786 -43.1668222 31.85499908 -43.16796875 33.01953125 C-43.17129715 34.19206955 -43.17462555 35.36460785 -43.17805481 36.57267761 C-43.18311306 39.05145883 -43.18546348 41.53024683 -43.18530273 44.0090332 C-43.18748587 47.78803829 -43.20564441 51.56674979 -43.22460938 55.34570312 C-43.22754424 57.75781151 -43.22952841 60.16992127 -43.23046875 62.58203125 C-43.23765427 63.70623978 -43.24483978 64.8304483 -43.25224304 65.98872375 C-43.2246029 75.55099075 -42.4030597 83.37696841 -35.46484375 90.59765625 C-30.19048768 95.487549 -24.78074561 98.04834241 -17.5625 98.4375 C-9.85631646 98.14519649 -3.34892262 94.34892262 2 89 C5.88037781 83.47792389 7.11714143 78.8196769 7.16113281 72.16503906 C7.17074036 70.9899176 7.1803479 69.81479614 7.19024658 68.60406494 C7.19449646 67.33737976 7.19874634 66.07069458 7.203125 64.765625 C7.20882507 63.45849548 7.21452515 62.15136597 7.22039795 60.80462646 C7.23088965 58.03739027 7.23674386 55.27018296 7.24023438 52.50292969 C7.24570663 48.97474591 7.26971467 45.44695047 7.29820633 41.91888809 C7.32143092 38.53447524 7.32328905 35.15011334 7.328125 31.765625 C7.3404718 30.50703674 7.3528186 29.24844849 7.36553955 27.95172119 C7.34377184 19.33682072 6.68121866 12.04784533 0.5625 5.3828125 C-4.93427355 0.51816791 -10.84144664 -1.85296602 -18.1640625 -2.19140625 C-25.97679125 -1.66410087 -32.41378485 1.30589121 -37.6328125 7.13671875 Z " fill="#E5E7EA" transform="translate(81,69)"/>
<path d="M0 0 C4.00517396 1.60373148 6.6771098 4.42113986 9.640625 7.4453125 C10.16767029 7.97518768 10.69471558 8.50506287 11.23773193 9.05099487 C12.91325675 10.73767825 14.58167722 12.43119564 16.25 14.125 C17.38755851 15.27259388 18.52557436 16.41973461 19.6640625 17.56640625 C22.44803465 20.37238137 25.2256576 23.18450464 28 26 C33.14122764 21.69679911 37.96224504 17.19136397 42.6875 12.4375 C43.33783203 11.79103516 43.98816406 11.14457031 44.65820312 10.47851562 C47.99736004 7.13255105 51.13783235 3.77516289 54 0 C55.32 0.33 56.64 0.66 58 1 C56.34763349 5.29067546 53.1094793 8.1429553 49.8984375 11.296875 C49.30197418 11.89050842 48.70551086 12.48414185 48.0909729 13.09576416 C46.1903019 14.98526627 44.28278526 16.86768392 42.375 18.75 C41.08287532 20.03209065 39.79120324 21.31463761 38.5 22.59765625 C35.33855521 25.73708432 32.1709539 28.87017801 29 32 C24.70932454 30.34763349 21.8570447 27.1094793 18.703125 23.8984375 C18.10949158 23.30197418 17.51585815 22.70551086 16.90423584 22.0909729 C15.01473373 20.1903019 13.13231608 18.28278526 11.25 16.375 C9.96790935 15.08287532 8.68536239 13.79120324 7.40234375 12.5 C4.26291568 9.33855521 1.12982199 6.1709539 -2 3 C-1.34 2.01 -0.68 1.02 0 0 Z " fill="#E8EBEE" transform="translate(35,242)"/>
<path d="M0 0 C3.93687345 1.59049917 6.32767644 4.1578528 9.24609375 7.19140625 C10.25818723 8.22878527 11.27056577 9.26588624 12.28320312 10.30273438 C13.86476717 11.93396047 15.44295871 13.56819006 17.01586914 15.20776367 C18.5421056 16.79450646 20.08062556 18.36849393 21.62109375 19.94140625 C22.98899048 21.35981812 22.98899048 21.35981812 24.38452148 22.80688477 C27.07271 25.06096835 28.55420056 25.70724507 32 26 C31.01 26.99 30.02 27.98 29 29 C22.84360315 23.81160395 17.10288954 18.25886641 11.42431641 12.5546875 C9.97804325 11.10296045 8.52637682 9.6567755 7.07421875 8.2109375 C6.16285156 7.29828125 5.25148438 6.385625 4.3125 5.4453125 C3.48363281 4.61531738 2.65476563 3.78532227 1.80078125 2.93017578 C0 1 0 1 0 0 Z " fill="#DEE0E3" transform="translate(35,244)"/>
<path d="M0 0 C1.32 0 2.64 0 4 0 C4 4.62 4 9.24 4 14 C2.68 14 1.36 14 0 14 C0 9.38 0 4.76 0 0 Z " fill="#E4E6E9" transform="translate(61,88)"/>
<path d="M0 0 C0.33 0.66 0.66 1.32 1 2 C1.99 2 2.98 2 4 2 C2.88059018 6.85077588 1.8665284 9.777893 -2 13 C-2 9.0644932 -1.2490025 6.66894484 0 3 C0 2.01 0 1.02 0 0 Z " fill="#E3E5E8" transform="translate(87,147)"/>
<path d="M0 0 C1.32 0.33 2.64 0.66 4 1 C4 1.66 4 2.32 4 3 C3.195625 3.12375 2.39125 3.2475 1.5625 3.375 C0.2940625 3.684375 0.2940625 3.684375 -1 4 C-1.33 4.66 -1.66 5.32 -2 6 C-2.66 5.67 -3.32 5.34 -4 5 C-2.68 3.35 -1.36 1.7 0 0 Z " fill="#EBECF0" transform="translate(89,242)"/>
</svg>
