<?xml version="1.0" encoding="UTF-8"?>
<svg version="1.1" xmlns="http://www.w3.org/2000/svg" width="128" height="327">
<path d="M0 0 C6.42706079 5.54056965 10.38152716 12.68575493 11.36593628 21.14431763 C11.50969594 24.69765972 11.52850465 28.22906581 11.49609375 31.78515625 C11.49754898 33.08142441 11.49900421 34.37769257 11.50050354 35.71324158 C11.50187847 38.44062965 11.48948247 41.16748604 11.46655273 43.89477539 C11.43814159 47.36673947 11.44092494 50.83782409 11.45364285 54.30985355 C11.46232201 57.65587746 11.44713434 61.00164709 11.43359375 64.34765625 C11.43652939 65.58226089 11.43946503 66.81686554 11.44248962 68.08888245 C11.3190191 79.46125774 9.32966842 86.53517242 1.41015625 94.828125 C-4.78386872 100.40977473 -11.53777679 102.36677111 -19.828125 102.2109375 C-28.26963682 101.39107844 -35.31158788 97.34267592 -40.76171875 90.92578125 C-47.06391511 82.18205604 -47.30408093 73.13552159 -47.265625 62.625 C-47.26753845 61.46049316 -47.2694519 60.29598633 -47.27142334 59.09619141 C-47.27277826 56.6455056 -47.26913048 54.19481245 -47.26074219 51.74414062 C-47.25003315 48.01155339 -47.26066145 44.27944742 -47.2734375 40.546875 C-47.27211578 38.15624895 -47.26955314 35.76562319 -47.265625 33.375 C-47.26967346 32.26850098 -47.27372192 31.16200195 -47.27789307 30.02197266 C-47.21455855 19.45947515 -45.97290713 11.22803042 -39 3 C-27.98800052 -7.84658318 -12.6294903 -8.66391655 0 0 Z M-37.6328125 7.13671875 C-41.8895973 12.93810832 -43.10963927 19.39349904 -43.16113281 26.47363281 C-43.17074036 27.54534729 -43.1803479 28.61706177 -43.19024658 29.72125244 C-43.19449646 30.87027039 -43.19874634 32.01928833 -43.203125 33.203125 C-43.20882507 34.39548767 -43.21452515 35.58785034 -43.22039795 36.81634521 C-43.22983588 39.3380037 -43.23637713 41.85967446 -43.24023438 44.38134766 C-43.24992907 48.22190086 -43.2809605 52.0619163 -43.3125 55.90234375 C-43.31903167 58.35676767 -43.32428149 60.8111954 -43.328125 63.265625 C-43.3404718 64.40654602 -43.3528186 65.54746704 -43.36553955 66.72296143 C-43.33819452 76.60295817 -41.77509238 83.97931528 -34.90234375 91.2734375 C-29.16204205 96.48332118 -23.071355 98.38169546 -15.4375 98.28125 C-8.5845928 97.49052994 -2.78663448 93.78663448 2 89 C5.88037781 83.47792389 7.11714143 78.8196769 7.16113281 72.16503906 C7.17074036 70.9899176 7.1803479 69.81479614 7.19024658 68.60406494 C7.19449646 67.33737976 7.19874634 66.07069458 7.203125 64.765625 C7.20882507 63.45849548 7.21452515 62.15136597 7.22039795 60.80462646 C7.23088965 58.03739027 7.23674386 55.27018296 7.24023438 52.50292969 C7.24570663 48.97474591 7.26971467 45.44695047 7.29820633 41.91888809 C7.32143092 38.53447524 7.32328905 35.15011334 7.328125 31.765625 C7.3404718 30.50703674 7.3528186 29.24844849 7.36553955 27.95172119 C7.34377184 19.33682072 6.68121866 12.04784533 0.5625 5.3828125 C-4.93427355 0.51816791 -10.84144664 -1.85296602 -18.1640625 -2.19140625 C-25.97679125 -1.66410087 -32.41378485 1.30589121 -37.6328125 7.13671875 Z " fill="#E5E7EB" transform="translate(81,69)"/>
<path d="M0 0 C4.00517396 1.60373148 6.6771098 4.42113986 9.640625 7.4453125 C10.16767029 7.97518768 10.69471558 8.50506287 11.23773193 9.05099487 C12.91325675 10.73767825 14.58167722 12.43119564 16.25 14.125 C17.38755851 15.27259388 18.52557436 16.41973461 19.6640625 17.56640625 C22.44803465 20.37238137 25.2256576 23.18450464 28 26 C28.76666992 25.207146 29.53333984 24.41429199 30.32324219 23.59741211 C33.16568158 20.66460631 36.02452844 17.74827066 38.88867188 14.83666992 C40.12695164 13.57321526 41.36071084 12.30531379 42.58984375 11.03295898 C44.35553511 9.20674998 46.13676718 7.39705228 47.921875 5.58984375 C48.46994812 5.0159642 49.01802124 4.44208466 49.58270264 3.85081482 C51.15917969 2.27319336 51.15917969 2.27319336 54 0 C56.17755127 0.35792542 56.17755127 0.35792542 58 1 C56.34763349 5.29067546 53.1094793 8.1429553 49.8984375 11.296875 C49.30197418 11.89050842 48.70551086 12.48414185 48.0909729 13.09576416 C46.1903019 14.98526627 44.28278526 16.86768392 42.375 18.75 C41.08287532 20.03209065 39.79120324 21.31463761 38.5 22.59765625 C35.33855521 25.73708432 32.1709539 28.87017801 29 32 C24.70932454 30.34763349 21.8570447 27.1094793 18.703125 23.8984375 C18.10949158 23.30197418 17.51585815 22.70551086 16.90423584 22.0909729 C15.01473373 20.1903019 13.13231608 18.28278526 11.25 16.375 C9.96790935 15.08287532 8.68536239 13.79120324 7.40234375 12.5 C4.26291568 9.33855521 1.12982199 6.1709539 -2 3 C-1.34 2.01 -0.68 1.02 0 0 Z " fill="#E8EAED" transform="translate(35,193)"/>
<path d="M0 0 C3.90106501 1.57504572 6.45744278 4.24833226 9.31640625 7.2265625 C10.33777698 8.2683406 11.35926484 9.31000387 12.38085938 10.3515625 C13.9786869 11.99301419 15.57396767 13.63685336 17.16674805 15.28320312 C18.71026234 16.8748559 20.26276082 18.45730698 21.81640625 20.0390625 C22.2914711 20.53588531 22.76653595 21.03270813 23.2559967 21.54458618 C24.44792817 22.75432168 25.71918346 23.88480065 27 25 C27.99 25 28.98 25 30 25 C30.33 25.99 30.66 26.98 31 28 C30.34 28.33 29.68 28.66 29 29 C22.84360315 23.81160395 17.10288954 18.25886641 11.42431641 12.5546875 C9.97804325 11.10296045 8.52637682 9.6567755 7.07421875 8.2109375 C6.16285156 7.29828125 5.25148438 6.385625 4.3125 5.4453125 C3.48363281 4.61531738 2.65476563 3.78532227 1.80078125 2.93017578 C0 1 0 1 0 0 Z " fill="#DEE0E3" transform="translate(35,195)"/>
<path d="M0 0 C1.32 0 2.64 0 4 0 C4 3.3 4 6.6 4 10 C2.68 10 1.36 10 0 10 C0 6.7 0 3.4 0 0 Z " fill="#E5E7EA" transform="translate(61,77)"/>
<path d="M0 0 C0.59329102 0.21946289 1.18658203 0.43892578 1.79785156 0.66503906 C1.79785156 1.32503906 1.79785156 1.98503906 1.79785156 2.66503906 C1.10304688 2.705 0.40824219 2.74496094 -0.30761719 2.78613281 C-4.44705699 4.04304773 -6.60081357 6.62959799 -9.51464844 9.72753906 C-10.06443359 10.29537109 -10.61421875 10.86320313 -11.18066406 11.44824219 C-12.53042208 12.84494831 -13.86756369 14.25382743 -15.20214844 15.66503906 C-15.20214844 11.56901561 -13.53872491 10.55644153 -10.77636719 7.73144531 C-10.174375 7.13203125 -9.57238281 6.53261719 -8.95214844 5.91503906 C-8.07236328 4.99271484 -8.07236328 4.99271484 -7.17480469 4.05175781 C-6.60117188 3.47554687 -6.02753906 2.89933594 -5.43652344 2.30566406 C-4.9128418 1.77489258 -4.38916016 1.24412109 -3.84960938 0.69726562 C-2.20214844 -0.33496094 -2.20214844 -0.33496094 0 0 Z " fill="#EBEDF0" transform="translate(91.2021484375,193.3349609375)"/>
<path d="M0 0 C2 3 2 3 1.625 5.6875 C1.41875 6.450625 1.2125 7.21375 1 8 C0.01 8 -0.98 8 -2 8 C-2 5.69 -2 3.38 -2 1 C-1.34 0.67 -0.68 0.34 0 0 Z " fill="#E1E3E6" transform="translate(89,146)"/>
</svg>
